<svg version="1.1" xmlns="http://www.w3.org/2000/svg" xmlns:xlink="http://www.w3.org/1999/xlink" width="485.4" height="288.2" viewBox="0,0,485.4,288.2"><g transform="translate(2.2,-74)"><g data-paper-data="{&quot;isPaintingLayer&quot;:true}" fill-rule="nonzero" stroke-linecap="butt" stroke-linejoin="miter" stroke-miterlimit="10" stroke-dasharray="" stroke-dashoffset="0" style="mix-blend-mode: normal"><path d="M175.9,177.3l-1.8,-24h3.5l-1.8,24z" fill="#000000" stroke="none" stroke-width="0"/><path d="M175.9,169.8c3.2,0 5.7,2.5 5.7,5.7c0,3.2 -2.5,5.7 -5.7,5.7c-3.2,0 -5.7,-2.6 -5.7,-5.7c0,-3.2 2.5,-5.7 5.7,-5.7z" fill="#ff00de" stroke="none" stroke-width="0"/><path d="M303.9,145.3l-1.8,-24h3.5l-1.8,24z" fill="#000000" stroke="none" stroke-width="0"/><path d="M303.9,137.8c3.2,0 5.7,2.5 5.7,5.7c0,3.2 -2.5,5.7 -5.7,5.7c-3.2,0 -5.7,-2.6 -5.7,-5.7c0,-3.2 2.5,-5.7 5.7,-5.7z" fill="#ff00de" stroke="none" stroke-width="0"/><path d="M431.9,113.3l-1.8,-24h3.5l-1.8,24z" fill="#000000" stroke="none" stroke-width="0"/><path d="M431.9,105.8c3.2,0 5.7,2.5 5.7,5.7c0,3.2 -2.5,5.7 -5.7,5.7c-3.2,0 -5.7,-2.6 -5.7,-5.7c0,-3.2 2.5,-5.7 5.7,-5.7z" fill="#ff00de" stroke="none" stroke-width="0"/><path d="M0,311.2v-14.2h32v14.2z" fill="#000000" stroke="#ffffff" stroke-width="2"/><path d="M128,279.2v-14.2h32v14.2z" fill="#000000" stroke="#ffffff" stroke-width="2"/><path d="M256,247.2v-14.2h32v14.2z" fill="#000000" stroke="#ffffff" stroke-width="2"/><path d="M384,216.2v-14.2h32v14.2z" fill="#000000" stroke="#ffffff" stroke-width="2"/><path d="M160,152.2v-14.2h32v14.2z" fill="#000000" stroke="#ffffff" stroke-width="2"/><path d="M288,120.2v-14.2h32v14.2z" fill="#000000" stroke="#ffffff" stroke-width="2"/><path d="M416,89.2v-14.2h32v14.2z" fill="#000000" stroke="#ffffff" stroke-width="2"/><g><path d="M29.8,334.6l10.9,24h-21.8z" fill="#ff00de" stroke="#fffee0" stroke-width="2"/><path d="M58.8,338.9l10.9,21.7h-21.8z" fill="#ff00de" stroke="#fffee0" stroke-width="2"/><path d="M14.3,349.3l11.2,10.3h-22.3l11.2,-10.3z" fill="#000000" stroke="none" stroke-width="0"/><path d="M42.3,348.3l11.2,10.3h-22.3l11.2,-10.3z" fill="#000000" stroke="none" stroke-width="0"/><path d="M23.8,344.3l7,13.7h-14z" fill="#000000" stroke="none" stroke-width="0"/><path d="M50.5,343.6l7,15h-14z" fill="#000000" stroke="none" stroke-width="0"/><path d="M74.5,344.6l7,14h-14z" fill="#000000" stroke="none" stroke-width="0"/><path d="M4.8,349.3l7,10.3h-14z" fill="#000000" stroke="none" stroke-width="0"/><path d="M56.8,349.6l7,10.3h-14z" fill="#000000" stroke="none" stroke-width="0"/><path d="M33.5,349.9l13,10.3h-26z" fill="#000000" stroke="none" stroke-width="0"/><path d="M85.2,349.9l13,10.3h-26z" fill="#000000" stroke="none" stroke-width="0"/><path d="M65.8,348.6l13,10.3h-26z" fill="#000000" stroke="none" stroke-width="0"/><path d="M96.9,361.9h-97.8l2,-4.1h91.8z" fill="#000000" stroke="none" stroke-width="0"/></g><g><path d="M159,357.9h-21.8l10.9,-26z" fill="#ff00de" stroke="#fffee0" stroke-width="2"/><path d="M183,360.6h-21.8l10.9,-22z" fill="#ff00de" stroke="#fffee0" stroke-width="2"/><path d="M145,360.9h-21.8l10.9,-23.7z" fill="#ff00de" stroke="#fffee0" stroke-width="2"/><path d="M121.3,360.7h-21.8l10.9,-20.2z" fill="#ff00de" stroke="#fffee0" stroke-width="2"/><path d="M181,362.2h-22.3l11.2,-10.3l11.2,10.3z" fill="#000000" stroke="none" stroke-width="0"/><path d="M154,360.2h-22.3l11.2,-10.3l11.2,10.3z" fill="#000000" stroke="none" stroke-width="0"/><path d="M168.3,359.6h-14l7,-13.7z" fill="#000000" stroke="none" stroke-width="0"/><path d="M198.3,361.7h-22.3l11.2,-10.3l11.2,10.3z" fill="#000000" stroke="none" stroke-width="0"/><path d="M185.6,361.1h-14l7,-11.8z" fill="#000000" stroke="none" stroke-width="0"/><path d="M141.7,360.2h-14l7,-12.4z" fill="#000000" stroke="none" stroke-width="0"/><path d="M121.7,360.2h-14l7,-14z" fill="#000000" stroke="none" stroke-width="0"/><path d="M135.3,361.6h-14l7,-10.3z" fill="#000000" stroke="none" stroke-width="0"/><path d="M164.7,361.9h-26l13,-10.3z" fill="#000000" stroke="none" stroke-width="0"/><path d="M118,361.9h-26l13,-10.3z" fill="#000000" stroke="none" stroke-width="0"/><path d="M133.3,360.6h-26l13,-10.3z" fill="#000000" stroke="none" stroke-width="0"/><path d="M105.5,361.9v-3.1h70.5v3.1z" fill="#000000" stroke="none" stroke-width="0"/></g><g><path d="M269,358.6h-21.8l10.9,-24z" fill="#ff00de" stroke="#fffee0" stroke-width="2"/><path d="M240,360.6h-21.8l10.9,-21.7z" fill="#ff00de" stroke="#fffee0" stroke-width="2"/><path d="M273.4,349.3l11.2,10.3h-22.3l11.2,-10.3z" fill="#000000" stroke="none" stroke-width="0"/><path d="M245.4,348.3l11.2,10.3h-22.3l11.2,-10.3z" fill="#000000" stroke="none" stroke-width="0"/><path d="M271,358h-14l7,-13.7z" fill="#000000" stroke="none" stroke-width="0"/><path d="M244.3,358.6h-14l7,-15z" fill="#000000" stroke="none" stroke-width="0"/><path d="M220.3,358.6h-14l7,-14z" fill="#000000" stroke="none" stroke-width="0"/><path d="M290,359.6h-14l7,-10.3z" fill="#000000" stroke="none" stroke-width="0"/><path d="M238,359.9h-14l7,-10.3z" fill="#000000" stroke="none" stroke-width="0"/><path d="M267.3,360.2h-26l13,-10.3z" fill="#000000" stroke="none" stroke-width="0"/><path d="M215.7,360.2h-26l13,-10.3z" fill="#000000" stroke="none" stroke-width="0"/><path d="M235,358.9h-26l13,-10.3z" fill="#000000" stroke="none" stroke-width="0"/><path d="M194.9,357.8h91.8l2,4.1h-97.8z" fill="#000000" stroke="none" stroke-width="0"/></g><g><path d="M309,338.6l10.9,22h-21.8z" fill="#ff00de" stroke="#fffee0" stroke-width="2"/><path d="M325,335.2l10.9,23.7h-21.8z" fill="#ff00de" stroke="#fffee0" stroke-width="2"/><path d="M366.7,339.5l10.9,20.2h-21.8z" fill="#ff00de" stroke="#fffee0" stroke-width="2"/><path d="M300,362.2l11.2,-10.3l11.2,10.3h-22.3z" fill="#000000" stroke="none" stroke-width="0"/><path d="M327,360.2l11.2,-10.3l11.2,10.3h-22.3z" fill="#000000" stroke="none" stroke-width="0"/><path d="M319.8,345.9l7,13.7h-14z" fill="#000000" stroke="none" stroke-width="0"/><path d="M282.8,361.7l11.2,-10.3l11.2,10.3h-22.3z" fill="#000000" stroke="none" stroke-width="0"/><path d="M302.5,349.3l7,11.8h-14z" fill="#000000" stroke="none" stroke-width="0"/><path d="M346.5,347.8l7,12.4h-14z" fill="#000000" stroke="none" stroke-width="0"/><path d="M366.5,346.2l7,14h-14z" fill="#000000" stroke="none" stroke-width="0"/><path d="M352.8,351.3l7,10.3h-14z" fill="#000000" stroke="none" stroke-width="0"/><path d="M329.5,351.6l13,10.3h-26z" fill="#000000" stroke="none" stroke-width="0"/><path d="M376.1,351.6l13,10.3h-26z" fill="#000000" stroke="none" stroke-width="0"/><path d="M360.8,350.3l13,10.3h-26z" fill="#000000" stroke="none" stroke-width="0"/><path d="M375.6,358.8v3.1h-70.5v-3.1z" fill="#000000" stroke="none" stroke-width="0"/></g><g><path d="M414.8,334.6l10.9,24h-21.8z" fill="#ff00de" stroke="#fffee0" stroke-width="2"/><path d="M443.8,338.9l10.9,21.7h-21.8z" fill="#ff00de" stroke="#fffee0" stroke-width="2"/><path d="M399.3,349.3l11.2,10.3h-22.3l11.2,-10.3z" fill="#000000" stroke="none" stroke-width="0"/><path d="M427.3,348.3l11.2,10.3h-22.3l11.2,-10.3z" fill="#000000" stroke="none" stroke-width="0"/><path d="M408.8,344.3l7,13.7h-14z" fill="#000000" stroke="none" stroke-width="0"/><path d="M435.5,343.6l7,15h-14z" fill="#000000" stroke="none" stroke-width="0"/><path d="M459.5,344.6l7,14h-14z" fill="#000000" stroke="none" stroke-width="0"/><path d="M389.8,349.3l7,10.3h-14z" fill="#000000" stroke="none" stroke-width="0"/><path d="M441.8,349.6l7,10.3h-14z" fill="#000000" stroke="none" stroke-width="0"/><path d="M418.5,349.9l13,10.3h-26z" fill="#000000" stroke="none" stroke-width="0"/><path d="M470.2,349.9l13,10.3h-26z" fill="#000000" stroke="none" stroke-width="0"/><path d="M450.8,348.6l13,10.3h-26z" fill="#000000" stroke="none" stroke-width="0"/><path d="M481.9,361.9h-97.8l2,-4.1h91.8z" fill="#000000" stroke="none" stroke-width="0"/></g><g><path d="M47.9,209.3l-1.8,-24h3.5l-1.8,24z" fill="#000000" stroke="none" stroke-width="0"/><path d="M47.9,201.8c3.2,0 5.7,2.5 5.7,5.7c0,3.2 -2.5,5.7 -5.7,5.7c-3.2,0 -5.7,-2.6 -5.7,-5.7c0,-3.2 2.5,-5.7 5.7,-5.7z" fill="#ff00de" stroke="none" stroke-width="0"/><path d="M32,184.2v-14.2h32v14.2z" fill="#000000" stroke="#ffffff" stroke-width="2"/></g></g></g></svg>