<svg version="1.1" xmlns="http://www.w3.org/2000/svg" xmlns:xlink="http://www.w3.org/1999/xlink" width="721" height="101.17066" viewBox="0,0,721,101.17066"><g transform="translate(117.5,40)"><g data-paper-data="{&quot;isPaintingLayer&quot;:true}" fill-rule="nonzero" stroke-linecap="butt" stroke-linejoin="miter" stroke-miterlimit="10" stroke-dasharray="" stroke-dashoffset="0" style="mix-blend-mode: normal"><path d="M-117.5,-6v-34h721v34z" fill="none" stroke="none" stroke-width="0"/><path d="M39.20302,35.97767v-35.71749h35.95965v35.71749z" fill="#000000" stroke="#ffffff" stroke-width="2"/><path d="M75.20302,35.97767v-35.71749h35.95965v35.71749z" fill="#000000" stroke="#ffffff" stroke-width="2"/><path d="M-5.29698,35.47767v-35.71749h43.95965v35.71749z" fill="#000000" stroke="#ffffff" stroke-width="2"/><path d="M148.20302,35.97767v-35.71749h35.95965v35.71749z" fill="#000000" stroke="#ffffff" stroke-width="2"/><path d="M184.20302,35.97767v-35.71749h35.95965v35.71749z" fill="#000000" stroke="#ffffff" stroke-width="2"/><path d="M111.70302,35.47767v-35.71749h35.95965v35.71749z" fill="#000000" stroke="#ffffff" stroke-width="2"/><path d="M257.20302,35.97767v-35.71749h35.95965v35.71749z" fill="#000000" stroke="#ffffff" stroke-width="2"/><path d="M257.20302,35.97767v-35.71749h35.95965v35.71749z" fill="#000000" stroke="#ffffff" stroke-width="2"/><path d="M293.20302,35.97767v-35.71749h35.95965v35.71749z" fill="#000000" stroke="#ffffff" stroke-width="2"/><path d="M220.70302,35.47767v-35.71749h35.95965v35.71749z" fill="#000000" stroke="#ffffff" stroke-width="2"/><path d="M365.20302,35.97767v-35.71749h35.95965v35.71749z" fill="#000000" stroke="#ffffff" stroke-width="2"/><path d="M401.20302,35.97767v-35.71749h35.95965v35.71749z" fill="#000000" stroke="#ffffff" stroke-width="2"/><path d="M437.20302,35.97767v-35.71749h35.95965v35.71749z" fill="#000000" stroke="#ffffff" stroke-width="2"/><path d="M328.70302,35.47767v-35.71749h35.95965v35.71749z" fill="#000000" stroke="#ffffff" stroke-width="2"/><path d="M334.86783,37.75561l-15.54241,21.67121l-14.77117,-21.63026z" fill="#000000" stroke="#fff4d6" stroke-width="2"/><path d="M306.27968,37.68103l-15.54241,21.67121l-14.77117,-21.63026z" fill="#000000" stroke="#fff4d6" stroke-width="2"/><path d="M276.89743,37.60437l-15.54241,21.67121l-14.77117,-21.63026z" fill="#000000" stroke="#fff4d6" stroke-width="2"/><path d="M183.20254,37.0266l-15.54241,21.67121l-14.77117,-21.63026z" fill="#000000" stroke="#fff4d6" stroke-width="2"/><path d="M152.53859,35.9466l-15.54241,21.67121l-14.77117,-21.63026z" fill="#000000" stroke="#fff4d6" stroke-width="2"/><path d="M124.87115,36.20774l-15.54241,21.67121l-14.77117,-21.63026z" fill="#000000" stroke="#fff4d6" stroke-width="2"/></g></g></svg>