<svg version="1.1" xmlns="http://www.w3.org/2000/svg" xmlns:xlink="http://www.w3.org/1999/xlink" width="721" height="398.85875" viewBox="0,0,721,398.85875"><g transform="translate(117.5,40)"><g data-paper-data="{&quot;isPaintingLayer&quot;:true}" fill-rule="nonzero" stroke-linecap="butt" stroke-linejoin="miter" stroke-miterlimit="10" stroke-dasharray="" stroke-dashoffset="0" style="mix-blend-mode: normal"><path d="M-117.5,-6v-34h721v34z" fill="none" stroke="none" stroke-width="0"/><g><path d="M25.7,47.4648v-7.17703h10v7.17703z" fill="#000000" stroke="none" stroke-width="0"/><path d="M1.2,47.4648v-7.17703h5.5v7.17703z" fill="#000000" stroke="none" stroke-width="0"/><path d="M1.9,38.57895v-7.17703h5.5v7.17703z" fill="#000000" stroke="none" stroke-width="0"/><path d="M3.4,29.35134v-6.83527h5.5v6.83527z" fill="#000000" stroke="none" stroke-width="0"/><path d="M5.5,21.14902v-5.80998h5.5v5.80998z" fill="#000000" stroke="none" stroke-width="0"/><path d="M7.4,14.19984v-3.98724h5.5v3.98724z" fill="#000000" stroke="none" stroke-width="0"/><path d="M25,38.23719v-6.60742h10v6.60742z" fill="#000000" stroke="none" stroke-width="0"/><path d="M23.59999,29.92095v-6.83527h10v6.83527z" fill="#000000" stroke="none" stroke-width="0"/><path d="M20.7,21.14902v-5.69606h10v5.69606z" fill="#000000" stroke="none" stroke-width="0"/><path d="M18.3,14.19984v-3.53155h10v3.53155z" fill="#000000" stroke="none" stroke-width="0"/><path d="M15,9.41515v-2.73411h10v2.73411z" fill="#000000" stroke="none" stroke-width="0"/><path d="M10.7,5.99752v-1.82274h10v1.82274z" fill="#000000" stroke="none" stroke-width="0"/><path d="M25,56.00888v-6.60742h10v6.60742z" fill="#000000" stroke="none" stroke-width="0"/><path d="M23.59999,64.55297v-6.83527h10v6.83527z" fill="#000000" stroke="none" stroke-width="0"/><path d="M20.7,72.18567v-5.69606h10v5.69606z" fill="#000000" stroke="none" stroke-width="0"/><path d="M18.3,76.97037v-3.53155h10v3.53155z" fill="#000000" stroke="none" stroke-width="0"/><path d="M15,80.95761v-2.73411h10v2.73411z" fill="#000000" stroke="none" stroke-width="0"/><path d="M10.7,83.46387v-1.82274h10v1.82274z" fill="#000000" stroke="none" stroke-width="0"/><path d="M1.9,56.35065v-7.17703h5.5v7.17703z" fill="#000000" stroke="none" stroke-width="0"/><path d="M3.4,65.00865v-6.83527h5.5v6.83527z" fill="#000000" stroke="none" stroke-width="0"/><path d="M5.5,72.2996v-5.80998h5.5v5.80998z" fill="#000000" stroke="none" stroke-width="0"/><path d="M7.4,77.42605v-3.98724h5.5v3.98724z" fill="#000000" stroke="none" stroke-width="0"/><path d="M13,10.2126c-4.8,0 -8.8,15.15151 -8.8,33.83457c0,18.68306 3.9,33.83457 8.8,33.83457c4.9,0 8.8,-15.15151 8.8,-33.83457c0,-18.68306 -3.9,-33.83457 -8.8,-33.83457zM25.8,44.04717c0,22.78422 -5.7,41.35336 -12.8,41.35336c-7.1,0 -12.9,-18.45522 -12.9,-41.23944c0,-22.78422 5.8,-41.35336 12.9,-41.35336c7.1,0 12.8,18.45522 12.8,41.35336v0z" fill="#69f4ff" stroke="none" stroke-width="0"/><path d="M25.8,44.16109c0,22.78422 -5.7,41.35336 -12.8,41.35336c-7.1,0 -12.9,-18.56914 -12.9,-41.35336c0,-22.78422 5.8,-41.35336 12.9,-41.35336c7.1,0 12.8,18.45522 12.8,41.35336z" fill="none" stroke="#e9fcff" stroke-width="1.9"/></g><path d="M80.02018,189.85875v-35.71749h35.95965v35.71749z" fill="#000000" stroke="#ffffff" stroke-width="2"/><path d="M176.02018,235.85875v-35.71749h35.95965v35.71749z" fill="#000000" stroke="#ffffff" stroke-width="2"/><path d="M274.02018,299.85875v-35.71749h35.95965v35.71749z" fill="#000000" stroke="#ffffff" stroke-width="2"/><path d="M332.02018,357.85875v-35.71749h35.95965v35.71749z" fill="#000000" stroke="#ffffff" stroke-width="2"/></g></g></svg>