<svg version="1.1" xmlns="http://www.w3.org/2000/svg" xmlns:xlink="http://www.w3.org/1999/xlink" width="721" height="399.06318" viewBox="0,0,721,399.06318"><g transform="translate(117.5,40)"><g data-paper-data="{&quot;isPaintingLayer&quot;:true}" fill-rule="nonzero" stroke-linecap="butt" stroke-linejoin="miter" stroke-miterlimit="10" stroke-dasharray="" stroke-dashoffset="0" style="mix-blend-mode: normal"><path d="M-117.5,-6v-34h721v34z" fill="none" stroke="none" stroke-width="0"/><path d="M223.8,355.57501c-1.4,1.1 -28.7,0.9 -29.6,0c0,-4.1 6.6,-7.4 14.8,-7.4c8.2,0 14.8,3.3 14.8,7.4z" fill="#fbff00" stroke="#fffede" stroke-width="1.9"/><path d="M265.03288,285.72156v-35.71749h35.95965v35.71749z" fill="#000000" stroke="#ffffff" stroke-width="2"/><path d="M264.09668,358.06318v-35.71749h35.95965v35.71749z" fill="#000000" stroke="#ffffff" stroke-width="2"/><path d="M264.20302,321.97767v-35.71749h35.95965v35.71749z" fill="#000000" stroke="#ffffff" stroke-width="2"/><path d="M265.20302,250.97767v-35.71749h35.95965v35.71749z" fill="#000000" stroke="#ffffff" stroke-width="2"/><g><path d="M107.41629,191.9065v0c0.9615,1.17657 -1.06834,1.81833 -1.38884,2.56705c-0.21367,0.5348 -0.74784,0.85568 -1.282,0.85568h-19.12323c-12.49954,-9.09165 -12.82005,-25.99142 -12.82005,-37.22227c0,-11.23086 -0.9615,-32.62297 13.46105,-38.07796c8.5467,0 10.4697,0.21392 19.12323,0.21392c-1.17517,0.32088 -3.52551,0.64176 -4.48702,1.28353c-0.9615,0 -0.53417,0 -0.74784,0c-4.38018,5.34803 -4.38018,7.91508 -4.38018,7.91508l0.74784,0.21392h-1.38884c-0.42733,0.96265 -0.641,1.39049 -0.9615,2.46009h4.38018c0.21367,-0.64176 0.21367,-0.96265 0.42733,-1.39049l-0.9615,1.39049c-3.09818,8.55684 0.74784,17.75545 0.74784,25.77749c0,8.02204 -2.99134,15.7232 -0.42733,22.88956v1.49745c-0.21367,-0.10696 -0.21367,-0.21392 -0.21367,-0.42784c-1.70934,0.21392 -2.56401,0.21392 -4.38018,0.21392c0.3205,0.96265 0.53417,1.39049 0.9615,2.35313h0.21367c0.21367,0.96265 1.17517,3.5297 4.16651,7.38028h8.33303zM92.13907,176.18329v0c1.70934,0 2.56401,0 4.38018,0c-0.10683,-1.06961 -0.10683,-1.49745 -0.3205,-2.56705c-1.70934,0 -2.56401,0 -4.38018,0c0.21367,1.06961 0.21367,1.49745 0.42733,2.56705zM91.07073,150.72668v0h4.48702c0,-1.06961 0,-1.60441 0,-2.78097h-4.38018c0,1.06961 0,1.71137 0,2.78097zM91.07073,156.82343v2.35313h4.48702v-2.35313zM91.71173,129.76241h-4.38018c-0.42733,0.96265 -0.641,1.39049 -0.9615,2.46009h4.38018c0.3205,-0.96265 0.53417,-1.49745 0.9615,-2.46009zM84.76754,138.53318c-0.21367,1.06961 -0.21367,1.60441 -0.42733,2.78097h4.38018c0.21367,-1.06961 0.21367,-1.60441 0.42733,-2.78097zM83.59237,147.94571c0,1.06961 0,1.71137 0,2.78097h4.48702c0,-1.06961 0,-1.60441 0,-2.78097zM83.3787,156.82343v2.35313h4.48702v-2.35313zM83.48553,165.0594c0,0.96265 0,1.49745 0,2.56705h4.38018c0,-1.06961 0,-1.49745 0,-2.56705zM88.61355,173.61624v0c-1.70934,0 -2.56401,0 -4.38018,0c0.21367,1.06961 0.21367,1.60441 0.42733,2.67401c1.70934,0 2.56401,0 4.38018,0c-0.21367,-0.96265 -0.21367,-1.49745 -0.42733,-2.56705zM86.15638,182.38701c0.3205,0.96265 0.53417,1.39049 0.9615,2.35313c1.70934,-0.21392 2.56401,-0.21392 4.38018,-0.21392c-0.42733,-0.85568 -0.641,-1.39049 -0.9615,-2.35313c-1.70934,0.21392 -2.56401,0.21392 -4.38018,0.21392zM95.45091,167.62645c0,-1.06961 0,-1.60441 0,-2.56705h-4.38018c0,1.06961 0,1.49745 0,2.56705zM92.2459,138.64014c-0.21367,1.06961 -0.21367,1.60441 -0.42733,2.78097h4.38018c0.21367,-1.06961 0.21367,-1.60441 0.42733,-2.78097zM90.10922,124.73527h4.38018c0.53417,-0.85568 0.85467,-1.17657 1.60251,-1.81833h-4.38018c-0.74784,0.64176 -0.9615,1.06961 -1.60251,1.81833zM82.4172,124.73527h4.38018c0.641,-0.85568 0.85467,-1.17657 1.60251,-1.81833h-4.38018c-0.74784,0.64176 -0.9615,1.06961 -1.60251,1.81833zM78.46435,132.22251h4.38018c0.3205,-0.96265 0.53417,-1.49745 0.9615,-2.46009h-4.38018c-0.42733,0.96265 -0.641,1.39049 -0.9615,2.46009zM76.43451,141.31415h4.38018c0.21367,-1.06961 0.21367,-1.60441 0.42733,-2.78097h-4.38018c-0.21367,1.06961 -0.21367,1.60441 -0.42733,2.78097zM75.79351,147.94571v0c-0.21367,1.06961 -0.21367,1.71137 -0.21367,2.78097h4.48702c0.21367,-1.06961 0.21367,-1.60441 0.21367,-2.78097h-4.38018zM75.57984,159.17657h4.48702v-2.35313h-4.48702c0,0.96265 0,1.39049 0,2.35313zM75.79351,164.95244v0c0.21367,1.06961 0.21367,1.60441 0.21367,2.67401h4.38018c-0.21367,-0.96265 -0.21367,-1.49745 -0.21367,-2.56705h-4.38018zM76.96868,176.50418c1.70934,0 2.56401,0 4.38018,0c-0.21367,-1.06961 -0.21367,-1.60441 -0.42733,-2.67401c-1.70934,0 -2.56401,0 -4.38018,0c0.21367,1.06961 0.21367,1.60441 0.42733,2.67401zM78.67802,182.38701v0c0.3205,1.06961 0.53417,1.49745 0.9615,2.46009c1.70934,-0.21392 2.56401,-0.21392 4.38018,-0.21392c-0.42733,-0.85568 -0.641,-1.39049 -0.9615,-2.35313c-1.70934,0.21392 -2.56401,0.21392 -4.38018,0.21392zM84.12654,192.12042v0c1.70934,0 2.56401,0 4.38018,0c-0.74784,-0.74872 -0.9615,-1.28353 -1.60251,-2.03225c-1.70934,0.21392 -2.56401,0.21392 -4.38018,0.21392c0.641,0.74872 0.85467,1.17657 1.60251,1.92529zM91.71173,191.79954v0c1.70934,0 2.56401,0 4.38018,0c-0.74784,-0.74872 -1.06834,-1.17657 -1.70934,-2.03225c-1.70934,0.21392 -2.56401,0.21392 -4.38018,0.21392c0.53417,0.85568 0.85467,1.28353 1.60251,2.03225z" fill="#000000" stroke="none" stroke-width="0"/><path d="M94.27574,115.21578c0,-1.83125 1.48277,-3.31578 3.31185,-3.31578c1.82908,0 3.31185,1.48453 3.31185,3.31578c0,1.83125 -1.48277,3.31578 -3.31185,3.31578c-1.82908,0 -3.31185,-1.48453 -3.31185,-3.31578z" fill="#ff77ff" stroke="#fee6ff" stroke-width="0.9"/><path d="M94.27574,200.78422c0,-1.83125 1.48277,-3.31578 3.31185,-3.31578c1.82908,0 3.31185,1.48453 3.31185,3.31578c0,1.83125 -1.48277,3.31578 -3.31185,3.31578c-1.82908,0 -3.31185,-1.48453 -3.31185,-3.31578z" fill="#ff77ff" stroke="#fee6ff" stroke-width="0.9"/><path d="M118.74066,158.10696v0c0,19.57378 -3.31185,30.9116 -11.21754,37.54316h-19.0164c9.08087,-11.33782 11.00387,-23.95916 11.00387,-37.86404c0,-13.90487 -1.60251,-27.06102 -11.00387,-37.86404h19.0164c7.37153,6.20371 11.21754,18.61114 11.21754,38.07796zM116.17665,155.21903v0c-0.10683,-2.67401 -0.3205,-5.34803 -0.53417,-7.91508h-3.31185c0.3205,2.56705 0.53417,5.24107 0.53417,7.80812h3.31185zM114.89465,142.16984v0c-0.42733,-2.56705 -1.06834,-5.13411 -1.81617,-7.5942h-3.31185c0.74784,2.46009 1.38884,4.92019 1.81617,7.48724h3.31185zM103.24977,124.73527h-3.31185c0.85467,1.39049 1.70934,2.9949 2.45718,4.5993h3.31185c-0.641,-1.60441 -1.49567,-3.10186 -2.45718,-4.5993zM107.73679,134.57564h-3.31185c0.74784,2.46009 1.38884,4.92019 1.70934,7.38028h3.31185c-0.53417,-2.46009 -1.06834,-5.02715 -1.81617,-7.38028zM106.77528,147.30394c0.21367,2.56705 0.42733,5.24107 0.42733,7.80812h3.31185c0,-2.56705 -0.21367,-5.24107 -0.42733,-7.80812zM104.63861,147.4109v0h-3.31185c0.10683,2.56705 0.3205,5.13411 0.3205,7.70116h3.31185c-0.10683,-2.67401 -0.21367,-5.24107 -0.42733,-7.80812zM101.32676,167.84037h3.31185c0.21367,-2.46009 0.21367,-4.92019 0.21367,-7.27332h-3.31185c0,2.46009 0,4.92019 -0.21367,7.27332zM106.34795,172.54664v0c-0.3205,2.46009 -0.85467,5.02715 -1.60251,7.27332h3.31185c0.74784,-2.35313 1.282,-4.81323 1.60251,-7.16636h-3.31185zM106.88212,167.62645h3.31185c0.21367,-2.35313 0.21367,-4.81323 0.21367,-7.16636h-3.31185c0,2.46009 0,4.92019 -0.21367,7.27332zM107.73679,129.33457h3.31185c-0.53417,-1.60441 -1.49567,-3.10186 -2.35034,-4.5993h-3.31185c0.9615,1.39049 1.70934,2.9949 2.45718,4.5993zM96.73292,129.33457h3.31185c-0.641,-1.60441 -1.49567,-3.20882 -2.45718,-4.5993h-3.31185c0.9615,1.39049 1.81617,2.9949 2.56401,4.5993zM98.97642,134.89652v0c0.74784,2.46009 1.282,4.92019 1.60251,7.27332h3.31185c-0.42733,-2.56705 -0.9615,-5.02715 -1.70934,-7.38028h-3.31185zM99.19009,179.92691h3.31185c0.74784,-2.35313 1.282,-4.92019 1.60251,-7.27332h-3.31185c-0.3205,2.46009 -0.85467,5.02715 -1.60251,7.27332zM93.42107,191.69258h3.31185c1.49567,-2.24617 2.77768,-4.38538 3.84601,-6.73852h-3.31185M102.50194,191.69258c1.38884,-2.24617 2.67084,-4.38538 3.73918,-6.73852h-3.31185c-1.06834,2.35313 -2.45718,4.49234 -3.84601,6.73852zM111.68963,185.06102h-3.31185c-1.06834,2.24617 -2.35034,4.38538 -3.73918,6.63155h3.31185c1.49567,-2.13921 2.67084,-4.38538 3.73918,-6.63155zM113.61264,179.71299v0c0.74784,-2.24617 1.282,-4.70626 1.60251,-7.0594h-3.31185c-0.3205,2.35313 -0.85467,4.92019 -1.60251,7.16636h3.31185zM115.74932,167.73341c0.21367,-2.35313 0.21367,-4.81323 0.21367,-7.16636h-3.31185c0,2.35313 0,4.81323 -0.21367,7.16636z" fill="#000000" stroke="none" stroke-width="0"/><path d="M85.51538,126.01879c-5.12802,0 -9.40137,14.22575 -9.40137,31.76729c0,17.54153 4.16651,31.76729 9.40137,31.76729c5.23485,0 9.40137,-14.22575 9.40137,-31.76729c0,-17.54153 -4.16651,-31.76729 -9.40137,-31.76729zM99.29692,157.78608c0,21.39211 -6.08952,38.82668 -13.67472,38.82668c-7.58519,0 -13.78155,-17.32761 -13.78155,-38.71972c0,-21.39211 6.19636,-38.82668 13.78155,-38.82668c7.58519,0 13.67472,17.32761 13.67472,38.82668v0z" fill="#ff77ff" stroke="none" stroke-width="0"/><path d="M99.29692,157.89304c0,21.39211 -6.08952,38.82668 -13.67472,38.82668c-7.58519,0 -13.78155,-17.43457 -13.78155,-38.82668c0,-21.39211 6.19636,-38.82668 13.78155,-38.82668c7.58519,0 13.67472,17.32761 13.67472,38.82668z" fill="none" stroke="#fee6ff" stroke-width="1.9"/><path d="M106.77528,175.86241c0,-1.83125 1.48277,-3.31578 3.31185,-3.31578c1.82908,0 3.31185,1.48453 3.31185,3.31578c0,1.83125 -1.48277,3.31578 -3.31185,3.31578c-1.82908,0 -3.31185,-1.48453 -3.31185,-3.31578z" fill="#ff77ff" stroke="#fee6ff" stroke-width="0.9"/><path d="M106.77528,139.17494c0,-1.83125 1.48277,-3.31578 3.31185,-3.31578c1.82908,0 3.31185,1.48453 3.31185,3.31578c0,1.83125 -1.48277,3.31578 -3.31185,3.31578c-1.82908,0 -3.31185,-1.48453 -3.31185,-3.31578z" fill="#ff77ff" stroke="#fee6ff" stroke-width="0.9"/></g><path d="M39.20302,35.97767v-35.71749h35.95965v35.71749z" fill="#000000" stroke="#ffffff" stroke-width="2"/><path d="M0.20302,-1.02233v-35.71749h35.95965v35.71749z" fill="#000000" stroke="#ffffff" stroke-width="2"/><path d="M75.20302,35.97767v-35.71749h35.95965v35.71749z" fill="#000000" stroke="#ffffff" stroke-width="2"/><path d="M148.20302,35.97767v-35.71749h35.95965v35.71749z" fill="#000000" stroke="#ffffff" stroke-width="2"/><path d="M184.20302,35.97767v-35.71749h35.95965v35.71749z" fill="#000000" stroke="#ffffff" stroke-width="2"/><path d="M111.70302,35.47767v-35.71749h35.95965v35.71749z" fill="#000000" stroke="#ffffff" stroke-width="2"/><path d="M257.20302,35.97767v-35.71749h35.95965v35.71749z" fill="#000000" stroke="#ffffff" stroke-width="2"/><path d="M266.20302,71.97767v-35.71749h35.95965v35.71749z" fill="#000000" stroke="#ffffff" stroke-width="2"/><path d="M266.20302,107.97767v-35.71749h35.95965v35.71749z" fill="#000000" stroke="#ffffff" stroke-width="2"/><path d="M293.20302,35.97767v-35.71749h35.95965v35.71749z" fill="#000000" stroke="#ffffff" stroke-width="2"/><path d="M220.70302,35.47767v-35.71749h35.95965v35.71749z" fill="#000000" stroke="#ffffff" stroke-width="2"/><path d="M365.20302,35.97767v-35.71749h35.95965v35.71749z" fill="#000000" stroke="#ffffff" stroke-width="2"/><path d="M401.20302,35.97767v-35.71749h35.95965v35.71749z" fill="#000000" stroke="#ffffff" stroke-width="2"/><path d="M437.20302,35.97767v-35.71749h35.95965v35.71749z" fill="#000000" stroke="#ffffff" stroke-width="2"/><path d="M328.70302,35.47767v-35.71749h35.95965v35.71749z" fill="#000000" stroke="#ffffff" stroke-width="2"/><g><path d="M285.7,164.4648v-7.17703h10v7.17703z" fill="#000000" stroke="none" stroke-width="0"/><path d="M261.2,164.4648v-7.17703h5.5v7.17703z" fill="#000000" stroke="none" stroke-width="0"/><path d="M261.9,155.57895v-7.17703h5.5v7.17703z" fill="#000000" stroke="none" stroke-width="0"/><path d="M263.4,146.35134v-6.83527h5.5v6.83527z" fill="#000000" stroke="none" stroke-width="0"/><path d="M265.5,138.14902v-5.80998h5.5v5.80998z" fill="#000000" stroke="none" stroke-width="0"/><path d="M267.4,131.19984v-3.98724h5.5v3.98724z" fill="#000000" stroke="none" stroke-width="0"/><path d="M285,155.23719v-6.60742h10v6.60742z" fill="#000000" stroke="none" stroke-width="0"/><path d="M283.59999,146.92095v-6.83527h10v6.83527z" fill="#000000" stroke="none" stroke-width="0"/><path d="M280.7,138.14902v-5.69606h10v5.69606z" fill="#000000" stroke="none" stroke-width="0"/><path d="M278.3,131.19984v-3.53155h10v3.53155z" fill="#000000" stroke="none" stroke-width="0"/><path d="M275,126.41515v-2.73411h10v2.73411z" fill="#000000" stroke="none" stroke-width="0"/><path d="M270.7,122.99752v-1.82274h10v1.82274z" fill="#000000" stroke="none" stroke-width="0"/><path d="M285,173.00888v-6.60742h10v6.60742z" fill="#000000" stroke="none" stroke-width="0"/><path d="M283.59999,181.55297v-6.83527h10v6.83527z" fill="#000000" stroke="none" stroke-width="0"/><path d="M280.7,189.18567v-5.69606h10v5.69606z" fill="#000000" stroke="none" stroke-width="0"/><path d="M278.3,193.97037v-3.53155h10v3.53155z" fill="#000000" stroke="none" stroke-width="0"/><path d="M275,197.95761v-2.73411h10v2.73411z" fill="#000000" stroke="none" stroke-width="0"/><path d="M270.7,200.46387v-1.82274h10v1.82274z" fill="#000000" stroke="none" stroke-width="0"/><path d="M261.9,173.35065v-7.17703h5.5v7.17703z" fill="#000000" stroke="none" stroke-width="0"/><path d="M263.4,182.00865v-6.83527h5.5v6.83527z" fill="#000000" stroke="none" stroke-width="0"/><path d="M265.5,189.2996v-5.80998h5.5v5.80998z" fill="#000000" stroke="none" stroke-width="0"/><path d="M267.4,194.42605v-3.98724h5.5v3.98724z" fill="#000000" stroke="none" stroke-width="0"/><path d="M273,127.2126c-4.8,0 -8.8,15.15151 -8.8,33.83457c0,18.68306 3.9,33.83457 8.8,33.83457c4.9,0 8.8,-15.15151 8.8,-33.83457c0,-18.68306 -3.9,-33.83457 -8.8,-33.83457zM285.8,161.04717c0,22.78422 -5.7,41.35336 -12.8,41.35336c-7.1,0 -12.9,-18.45522 -12.9,-41.23944c0,-22.78422 5.8,-41.35336 12.9,-41.35336c7.1,0 12.8,18.45522 12.8,41.35336v0z" fill="#69f4ff" stroke="none" stroke-width="0"/><path d="M285.8,161.16109c0,22.78422 -5.7,41.35336 -12.8,41.35336c-7.1,0 -12.9,-18.56914 -12.9,-41.35336c0,-22.78422 5.8,-41.35336 12.9,-41.35336c7.1,0 12.8,18.45522 12.8,41.35336z" fill="none" stroke="#e9fcff" stroke-width="1.9"/></g><g><path d="M303.39999,197.388v0c0.9,1.25313 -1,1.93666 -1.3,2.73411c-0.2,0.56961 -0.7,0.91137 -1.2,0.91137h-17.9c-11.7,-9.68329 -12,-27.68283 -12,-39.64455c0,-11.96172 -0.9,-34.74594 12.6,-40.55592c8,0 9.8,0.22784 17.9,0.22784c-1.1,0.34176 -3.3,0.68353 -4.2,1.36705c-0.9,0 -0.5,0 -0.7,0c-4.1,5.69606 -4.1,8.43016 -4.1,8.43016l0.7,0.22784h-1.3c-0.4,1.02529 -0.6,1.48097 -0.9,2.62019h4.1c0.2,-0.68353 0.2,-1.02529 0.4,-1.48097l-0.9,1.48097c-2.9,9.11369 0.7,18.9109 0.7,27.45499c0,8.54408 -2.8,16.7464 -0.4,24.37912v1.5949c-0.2,-0.11392 -0.2,-0.22784 -0.2,-0.45568c-1.6,0.22784 -2.4,0.22784 -4.1,0.22784c0.3,1.02529 0.5,1.48097 0.9,2.50626h0.2c0.2,1.02529 1.1,3.7594 3.9,7.86056h7.8zM289.09999,180.6416v0c1.6,0 2.4,0 4.1,0c-0.1,-1.13921 -0.1,-1.5949 -0.3,-2.73411c-1.6,0 -2.4,0 -4.1,0c0.2,1.13921 0.2,1.5949 0.4,2.73411zM288.09999,153.52837v0h4.2c0,-1.13921 0,-1.70882 0,-2.96195h-4.1c0,1.13921 0,1.82274 0,2.96195zM288.09999,160.02188v2.50626h4.2v-2.50626zM288.69999,131.19982h-4.1c-0.4,1.02529 -0.6,1.48097 -0.9,2.62019h4.1c0.3,-1.02529 0.5,-1.5949 0.9,-2.62019zM282.19999,140.54137c-0.2,1.13921 -0.2,1.70882 -0.4,2.96195h4.1c0.2,-1.13921 0.2,-1.70882 0.4,-2.96195zM281.09999,150.56641c0,1.13921 0,1.82274 0,2.96195h4.2c0,-1.13921 0,-1.70882 0,-2.96195zM280.89999,160.02188v2.50626h4.2v-2.50626zM280.99999,168.79379c0,1.02529 0,1.5949 0,2.73411h4.1c0,-1.13921 0,-1.5949 0,-2.73411zM285.79999,177.90749v0c-1.6,0 -2.4,0 -4.1,0c0.2,1.13921 0.2,1.70882 0.4,2.84803c1.6,0 2.4,0 4.1,0c-0.2,-1.02529 -0.2,-1.5949 -0.4,-2.73411zM283.49999,187.24902c0.3,1.02529 0.5,1.48097 0.9,2.50626c1.6,-0.22784 2.4,-0.22784 4.1,-0.22784c-0.4,-0.91137 -0.6,-1.48097 -0.9,-2.50626c-1.6,0.22784 -2.4,0.22784 -4.1,0.22784zM292.19999,171.52791c0,-1.13921 0,-1.70882 0,-2.73411h-4.1c0,1.13921 0,1.5949 0,2.73411zM289.19999,140.65529c-0.2,1.13921 -0.2,1.70882 -0.4,2.96195h4.1c0.2,-1.13921 0.2,-1.70882 0.4,-2.96195zM287.19999,125.84554h4.1c0.5,-0.91137 0.8,-1.25313 1.5,-1.93666h-4.1c-0.7,0.68353 -0.9,1.13921 -1.5,1.93666zM279.99999,125.84554h4.1c0.6,-0.91137 0.8,-1.25313 1.5,-1.93666h-4.1c-0.7,0.68353 -0.9,1.13921 -1.5,1.93666zM276.29999,133.82002h4.1c0.3,-1.02529 0.5,-1.5949 0.9,-2.62019h-4.1c-0.4,1.02529 -0.6,1.48097 -0.9,2.62019zM274.39999,143.50332h4.1c0.2,-1.13921 0.2,-1.70882 0.4,-2.96195h-4.1c-0.2,1.13921 -0.2,1.70882 -0.4,2.96195zM273.79999,150.56641v0c-0.2,1.13921 -0.2,1.82274 -0.2,2.96195h4.2c0.2,-1.13921 0.2,-1.70882 0.2,-2.96195h-4.1zM273.59999,162.52813h4.2v-2.50626h-4.2c0,1.02529 0,1.48097 0,2.50626zM273.79999,168.67988v0c0.2,1.13921 0.2,1.70882 0.2,2.84803h4.1c-0.2,-1.02529 -0.2,-1.5949 -0.2,-2.73411h-4.1zM274.89999,180.98336c1.6,0 2.4,0 4.1,0c-0.2,-1.13921 -0.2,-1.70882 -0.4,-2.84803c-1.6,0 -2.4,0 -4.1,0c0.2,1.13921 0.2,1.70882 0.4,2.84803zM276.49999,187.24902v0c0.3,1.13921 0.5,1.5949 0.9,2.62019c1.6,-0.22784 2.4,-0.22784 4.1,-0.22784c-0.4,-0.91137 -0.6,-1.48097 -0.9,-2.50626c-1.6,0.22784 -2.4,0.22784 -4.1,0.22784zM281.59999,197.61585v0c1.6,0 2.4,0 4.1,0c-0.7,-0.79745 -0.9,-1.36705 -1.5,-2.1645c-1.6,0.22784 -2.4,0.22784 -4.1,0.22784c0.6,0.79745 0.8,1.25313 1.5,2.05058zM288.69999,197.27408v0c1.6,0 2.4,0 4.1,0c-0.7,-0.79745 -1,-1.25313 -1.6,-2.1645c-1.6,0.22784 -2.4,0.22784 -4.1,0.22784c0.5,0.91137 0.8,1.36705 1.5,2.1645z" fill="#000000" stroke="none" stroke-width="0"/><path d="M291.09999,115.70656c0,-1.95042 1.38792,-3.53155 3.1,-3.53155c1.71208,0 3.1,1.58113 3.1,3.53155c0,1.95042 -1.38792,3.53155 -3.1,3.53155c-1.71208,0 -3.1,-1.58113 -3.1,-3.53155z" fill="#2bff50" stroke="#e1ffe5" stroke-width="0.9"/><path d="M291.09999,206.84346c0,-1.95042 1.38792,-3.53155 3.1,-3.53155c1.71208,0 3.1,1.58113 3.1,3.53155c0,1.95042 -1.38792,3.53155 -3.1,3.53155c-1.71208,0 -3.1,-1.58113 -3.1,-3.53155z" fill="#2bff50" stroke="#e1ffe5" stroke-width="0.9"/><path d="M313.99999,161.38892v0c0,20.84756 -3.1,32.9232 -10.5,39.98631h-17.8c8.5,-12.07564 10.3,-25.51833 10.3,-40.32807c0,-14.80974 -1.5,-28.82204 -10.3,-40.32807h17.8c6.9,6.60742 10.5,19.82227 10.5,40.55592zM311.59999,158.31306v0c-0.1,-2.84803 -0.3,-5.69606 -0.5,-8.43016h-3.1c0.3,2.73411 0.5,5.58213 0.5,8.31624h3.1zM310.39999,144.41469v0c-0.4,-2.73411 -1,-5.46821 -1.7,-8.0884h-3.1c0.7,2.62019 1.3,5.24037 1.7,7.97448h3.1zM299.49999,125.84554h-3.1c0.8,1.48097 1.6,3.18979 2.3,4.89861h3.1c-0.6,-1.70882 -1.4,-3.30371 -2.3,-4.89861zM303.69999,136.32627h-3.1c0.7,2.62019 1.3,5.24037 1.6,7.86056h3.1c-0.5,-2.62019 -1,-5.35429 -1.7,-7.86056zM302.79999,149.8829c0.2,2.73411 0.4,5.58213 0.4,8.31624h3.1c0,-2.73411 -0.2,-5.58213 -0.4,-8.31624zM300.79999,149.99681v0h-3.1c0.1,2.73411 0.3,5.46821 0.3,8.20232h3.1c-0.1,-2.84803 -0.2,-5.58213 -0.4,-8.31624zM297.69999,171.75575h3.1c0.2,-2.62019 0.2,-5.24037 0.2,-7.74664h-3.1c0,2.62019 0,5.24037 -0.2,7.74664zM302.39999,176.76828v0c-0.3,2.62019 -0.8,5.35429 -1.5,7.74664h3.1c0.7,-2.50626 1.2,-5.12645 1.5,-7.63271h-3.1zM302.89999,171.52791h3.1c0.2,-2.50626 0.2,-5.12645 0.2,-7.63271h-3.1c0,2.62019 0,5.24037 -0.2,7.74664zM303.69999,130.74415h3.1c-0.5,-1.70882 -1.4,-3.30371 -2.2,-4.89861h-3.1c0.9,1.48097 1.6,3.18979 2.3,4.89861zM293.39999,130.74415h3.1c-0.6,-1.70882 -1.4,-3.41763 -2.3,-4.89861h-3.1c0.9,1.48097 1.7,3.18979 2.4,4.89861zM295.49999,136.66805v0c0.7,2.62019 1.2,5.24037 1.5,7.74664h3.1c-0.4,-2.73411 -0.9,-5.35429 -1.6,-7.86056h-3.1zM295.69999,184.62884h3.1c0.7,-2.50626 1.2,-5.24037 1.5,-7.74664h-3.1c-0.3,2.62019 -0.8,5.35429 -1.5,7.74664zM290.29999,197.16016h3.1c1.4,-2.39234 2.6,-4.67077 3.6,-7.17703h-3.1M298.79999,197.16016c1.3,-2.39234 2.5,-4.67077 3.5,-7.17703h-3.1c-1,2.50626 -2.3,4.78469 -3.6,7.17703zM307.39999,190.09705h-3.1c-1,2.39234 -2.2,4.67077 -3.5,7.06311h3.1c1.4,-2.27842 2.5,-4.67077 3.5,-7.06311zM309.19999,184.401v0c0.7,-2.39234 1.2,-5.01253 1.5,-7.51879h-3.1c-0.3,2.50626 -0.8,5.24037 -1.5,7.63271h3.1zM311.19999,171.64183c0.2,-2.50626 0.2,-5.12645 0.2,-7.63271h-3.1c0,2.50626 0,5.12645 -0.2,7.63271z" fill="#000000" stroke="none" stroke-width="0"/><path d="M282.89999,127.21259c-4.8,0 -8.8,15.15151 -8.8,33.83457c0,18.68306 3.9,33.83457 8.8,33.83457c4.9,0 8.8,-15.15151 8.8,-33.83457c0,-18.68306 -3.9,-33.83457 -8.8,-33.83457zM295.79999,161.04717c0,22.78422 -5.7,41.35336 -12.8,41.35336c-7.1,0 -12.9,-18.45522 -12.9,-41.23944c0,-22.78422 5.8,-41.35336 12.9,-41.35336c7.1,0 12.8,18.45522 12.8,41.35336v0z" fill="#2bff50" stroke="none" stroke-width="0"/><path d="M295.79999,161.16109c0,22.78422 -5.7,41.35336 -12.8,41.35336c-7.1,0 -12.9,-18.56914 -12.9,-41.35336c0,-22.78422 5.8,-41.35336 12.9,-41.35336c7.1,0 12.8,18.45522 12.8,41.35336z" fill="none" stroke="#e1ffe5" stroke-width="1.9"/><path d="M302.79999,180.29984c0,-1.95042 1.38792,-3.53155 3.1,-3.53155c1.71208,0 3.1,1.58113 3.1,3.53155c0,1.95042 -1.38792,3.53155 -3.1,3.53155c-1.71208,0 -3.1,-1.58113 -3.1,-3.53155z" fill="#2bff50" stroke="#e1ffe5" stroke-width="0.9"/><path d="M302.79999,141.22489c0,-1.95042 1.38792,-3.53155 3.1,-3.53155c1.71208,0 3.1,1.58113 3.1,3.53155c0,1.95042 -1.38792,3.53155 -3.1,3.53155c-1.71208,0 -3.1,-1.58113 -3.1,-3.53155z" fill="#2bff50" stroke="#e1ffe5" stroke-width="0.9"/></g><path d="M77.20302,71.97767v-35.71749h35.95965v35.71749z" fill="#000000" stroke="#ffffff" stroke-width="2"/><path d="M77.20302,107.97767v-35.71749h35.95965v35.71749z" fill="#000000" stroke="#ffffff" stroke-width="2"/><path d="M75.20302,284.97767v-35.71749h35.95965v35.71749z" fill="#000000" stroke="#ffffff" stroke-width="2"/><path d="M75.20302,249.97767v-35.71749h35.95965v35.71749z" fill="#000000" stroke="#ffffff" stroke-width="2"/><path d="M75.20302,320.97767v-35.71749h35.95965v35.71749z" fill="#000000" stroke="#ffffff" stroke-width="2"/><path d="M75.20302,357.97767v-35.71749h35.95965v35.71749z" fill="#000000" stroke="#ffffff" stroke-width="2"/><path d="M34.02818,0.29855l-15.415,33.76202l-14.89781,-33.42258z" fill="#000000" stroke="#fff4d6" stroke-width="2"/></g></g></svg>