<svg version="1.1" xmlns="http://www.w3.org/2000/svg" xmlns:xlink="http://www.w3.org/1999/xlink" width="593" height="479.25487" viewBox="0,0,593,479.25487"><defs><linearGradient x1="226.60001" y1="124.25487" x2="250.60001" y2="124.25487" gradientUnits="userSpaceOnUse" id="color-1"><stop offset="0" stop-color="#80ffff" stop-opacity="0"></stop><stop offset="1" stop-color="#80ffff"></stop></linearGradient></defs><g transform="translate(56.5,118)"><g data-paper-data="{&quot;isPaintingLayer&quot;:true}" fill-rule="nonzero" stroke-linejoin="miter" stroke-miterlimit="10" stroke-dasharray="" stroke-dashoffset="0" style="mix-blend-mode: normal"><path d="M-56.5,-2.64512v-31h593v31z" fill="none" stroke="none" stroke-width="2" stroke-linecap="butt"></path><g><path d="M226.60001,360.25487v-472h24v472z" fill="url(#color-1)" stroke="none" stroke-width="0" stroke-linecap="butt"></path><path d="M248.3143,-89.74513v449" fill="none" stroke="#6bffdb" stroke-width="4" stroke-linecap="round"></path><g fill="#000000" stroke="#ffffff" stroke-width="2" stroke-linecap="butt"><path d="M250.8,-85v-32h32v32z"></path><path d="M250.8,-54v-32h32v32z"></path><path d="M250.8,74v-32h32v32z"></path><path d="M250.8,106v-32h32v32z"></path><path d="M250.8,138v-32h32v32z"></path><path d="M250.8,10v-32h32v32z"></path><path d="M250.8,42v-32h32v32z"></path><path d="M250.8,170v-32h32v32z"></path><path d="M250.8,202v-32h32v32z"></path><path d="M250.8,234v-32h32v32z"></path><path d="M250.8,265v-32h32v32z"></path><path d="M250.8,-22v-32h32v32z"></path><g><path d="M250.8,297v-32h32v32z"></path><path d="M250.8,329v-32h32v32z"></path><path d="M250.8,360v-32h32v32z"></path></g></g></g></g></g></svg>