<svg version="1.1" xmlns="http://www.w3.org/2000/svg" xmlns:xlink="http://www.w3.org/1999/xlink" width="436.84252" height="163.1" viewBox="0,0,436.84252,163.1"><g transform="translate(-27.5,-73)"><g data-paper-data="{&quot;isPaintingLayer&quot;:true}" fill-rule="nonzero" stroke-linecap="butt" stroke-linejoin="miter" stroke-miterlimit="10" stroke-dasharray="" stroke-dashoffset="0" style="mix-blend-mode: normal"><path d="M128,170l16,-28.6l16,28.6z" fill="#000000" stroke="#fffee0" stroke-width="2"></path><path d="M96,170l16,-28.6l16,28.6z" fill="#000000" stroke="#fffee0" stroke-width="2"></path><path d="M192,170l16,-16l16,16z" fill="#000000" stroke="#fffee0" stroke-width="2"></path><path d="M128,88.2v-14.2h32v14.2z" fill="#000000" stroke="#ffffff" stroke-width="2"></path><path d="M96,88.2v-14.2h32v14.2z" fill="#000000" stroke="#ffffff" stroke-width="2"></path><path d="M160,88.2v-14.2h32v14.2z" fill="#000000" stroke="#ffffff" stroke-width="2"></path><path d="M64,88.2v-14.2h32v14.2z" fill="#000000" stroke="#ffffff" stroke-width="2"></path><g><path d="M126.8,207.1l10.9,24h-21.8z" fill="#ff00de" stroke="#fffee0" stroke-width="2"></path><path d="M155.8,211.5l10.9,21.7h-21.8z" fill="#ff00de" stroke="#fffee0" stroke-width="2"></path><path d="M111.3,221.8l11.2,10.3h-22.3l11.2,-10.3z" fill="#000000" stroke="none" stroke-width="0"></path><path d="M139.3,220.8l11.2,10.3h-22.3l11.2,-10.3z" fill="#000000" stroke="none" stroke-width="0"></path><path d="M120.8,216.8l7,13.7h-14z" fill="#000000" stroke="none" stroke-width="0"></path><path d="M147.5,216.1l7,15h-14z" fill="#000000" stroke="none" stroke-width="0"></path><path d="M171.5,217.1l7,14h-14z" fill="#000000" stroke="none" stroke-width="0"></path><path d="M101.8,221.8l7,10.3h-14z" fill="#000000" stroke="none" stroke-width="0"></path><path d="M153.8,222.1l7,10.3h-14z" fill="#000000" stroke="none" stroke-width="0"></path><path d="M130.5,222.5l13,10.3h-26z" fill="#000000" stroke="none" stroke-width="0"></path><path d="M182.2,222.5l13,10.3h-26z" fill="#000000" stroke="none" stroke-width="0"></path><path d="M162.8,221.1l13,10.3h-26z" fill="#000000" stroke="none" stroke-width="0"></path><path d="M103.8,233.5v-4.2h83.6v4.2z" fill="#000000" stroke="none" stroke-width="0"></path></g><g><path d="M287.6,228.5h-21.8l10.9,-24z" fill="#ff00de" stroke="#fffee0" stroke-width="2"></path><path d="M311.6,235.1h-21.8l10.9,-24z" fill="#ff00de" stroke="#fffee0" stroke-width="2"></path><path d="M273.6,233.8h-21.8l10.9,-24z" fill="#ff00de" stroke="#fffee0" stroke-width="2"></path><path d="M249.9,233.3h-21.8l10.9,-20.2z" fill="#ff00de" stroke="#fffee0" stroke-width="2"></path><path d="M309.6,233.8h-22.3l11.2,-10.3l11.2,10.3z" fill="#000000" stroke="none" stroke-width="0"></path><path d="M282.6,231.8h-22.3l11.2,-10.3l11.2,10.3z" fill="#000000" stroke="none" stroke-width="0"></path><path d="M296.9,231.1h-14l7,-13.7z" fill="#000000" stroke="none" stroke-width="0"></path><path d="M326.8,233.3h-22.3l11.2,-10.3l11.2,10.3z" fill="#000000" stroke="none" stroke-width="0"></path><path d="M314.2,232.6h-14l7,-11.8z" fill="#000000" stroke="none" stroke-width="0"></path><path d="M270.2,231.8h-14l7,-12.4z" fill="#000000" stroke="none" stroke-width="0"></path><path d="M250.2,231.8h-14l7,-14z" fill="#000000" stroke="none" stroke-width="0"></path><path d="M263.9,233.1h-14l7,-10.3z" fill="#000000" stroke="none" stroke-width="0"></path><path d="M293.2,233.5h-26l13,-10.3z" fill="#000000" stroke="none" stroke-width="0"></path><path d="M246.6,233.5h-26l13,-10.3z" fill="#000000" stroke="none" stroke-width="0"></path><path d="M261.9,232.1h-26l13,-10.3z" fill="#000000" stroke="none" stroke-width="0"></path><path d="M234.1,233.4v-3.1h70.5v3.1z" fill="#000000" stroke="none" stroke-width="0"></path></g><g><path d="M396.8,217.2v0c0.9,1.1 -1,1.7 -1.3,2.4c-0.2,0.5 -0.7,0.8 -1.2,0.8h-17.9c-11.7,-8.5 -12,-24.3 -12,-34.8c0,-10.5 -0.9,-30.5 12.6,-35.6c8,0 9.8,0.2 17.9,0.2c-1.1,0.3 -3.3,0.6 -4.2,1.2c-0.9,0 -0.5,0 -0.7,0c-4.1,5 -4.1,7.4 -4.1,7.4l0.7,0.2h-1.3c-0.4,0.9 -0.6,1.3 -0.9,2.3h4.1c0.2,-0.6 0.2,-0.9 0.4,-1.3l-0.9,1.3c-2.9,8 0.7,16.6 0.7,24.1c0,7.5 -2.8,14.7 -0.4,21.4v1.4c-0.2,-0.1 -0.2,-0.2 -0.2,-0.4c-1.6,0.2 -2.4,0.2 -4.1,0.2c0.3,0.9 0.5,1.3 0.9,2.2h0.2c0.2,0.9 1.1,3.3 3.9,6.9h7.8zM382.6,202.5v0c1.6,0 2.4,0 4.1,0c-0.1,-1 -0.1,-1.4 -0.3,-2.4c-1.6,0 -2.4,0 -4.1,0c0.2,1 0.2,1.4 0.4,2.4zM381.6,178.7v0h4.2c0,-1 0,-1.5 0,-2.6h-4.1c0,1 0,1.6 0,2.6zM381.6,184.4v2.2h4.2v-2.2zM382.2,159.1h-4.1c-0.4,0.9 -0.6,1.3 -0.9,2.3h4.1c0.3,-0.9 0.5,-1.4 0.9,-2.3zM375.7,167.3c-0.2,1 -0.2,1.5 -0.4,2.6h4.1c0.2,-1 0.2,-1.5 0.4,-2.6zM374.6,176.1c0,1 0,1.6 0,2.6h4.2c0,-1 0,-1.5 0,-2.6zM374.4,184.4v2.2h4.2v-2.2zM374.5,192.1c0,0.9 0,1.4 0,2.4h4.1c0,-1 0,-1.4 0,-2.4zM379.3,200.1v0c-1.6,0 -2.4,0 -4.1,0c0.2,1 0.2,1.5 0.4,2.5c1.6,0 2.4,0 4.1,0c-0.2,-0.9 -0.2,-1.4 -0.4,-2.4zM377,208.3c0.3,0.9 0.5,1.3 0.9,2.2c1.6,-0.2 2.4,-0.2 4.1,-0.2c-0.4,-0.8 -0.6,-1.3 -0.9,-2.2c-1.6,0.2 -2.4,0.2 -4.1,0.2zM385.7,194.5c0,-1 0,-1.5 0,-2.4h-4.1c0,1 0,1.4 0,2.4zM382.7,167.4c-0.2,1 -0.2,1.5 -0.4,2.6h4.1c0.2,-1 0.2,-1.5 0.4,-2.6zM380.7,154.5h4.1c0.5,-0.8 0.8,-1.1 1.5,-1.7h-4.1c-0.7,0.6 -0.9,1 -1.5,1.7zM373.6,154.5h4.1c0.6,-0.8 0.8,-1.1 1.5,-1.7h-4.1c-0.7,0.6 -0.9,1 -1.5,1.7zM369.9,161.5h4.1c0.3,-0.9 0.5,-1.4 0.9,-2.3h-4.1c-0.4,0.9 -0.6,1.3 -0.9,2.3zM368,170h4.1c0.2,-1 0.2,-1.5 0.4,-2.6h-4.1c-0.2,1 -0.2,1.5 -0.4,2.6zM367.3,176.2v0c-0.2,1 -0.2,1.6 -0.2,2.6h4.2c0.2,-1 0.2,-1.5 0.2,-2.6h-4.1zM367.2,186.7h4.2v-2.2h-4.2c0,0.9 0,1.3 0,2.2zM367.4,192.1v0c0.2,1 0.2,1.5 0.2,2.5h4.1c-0.2,-0.9 -0.2,-1.4 -0.2,-2.4h-4.1zM368.5,203c1.6,0 2.4,0 4.1,0c-0.2,-1 -0.2,-1.5 -0.4,-2.5c-1.6,0 -2.4,0 -4.1,0c0.2,1 0.2,1.5 0.4,2.5zM370.1,208.5v0c0.3,1 0.5,1.4 0.9,2.3c1.6,-0.2 2.4,-0.2 4.1,-0.2c-0.4,-0.8 -0.6,-1.3 -0.9,-2.2c-1.6,0.2 -2.4,0.2 -4.1,0.2zM375.2,217.5v0c1.6,0 2.4,0 4.1,0c-0.7,-0.7 -0.9,-1.2 -1.5,-1.9c-1.6,0.2 -2.4,0.2 -4.1,0.2c0.6,0.7 0.8,1.1 1.5,1.8zM382.2,217.2v0c1.6,0 2.4,0 4.1,0c-0.7,-0.7 -1,-1.1 -1.6,-1.9c-1.6,0.2 -2.4,0.2 -4.1,0.2c0.5,0.8 0.8,1.2 1.5,1.9z" fill="#000000" stroke="none" stroke-width="0"></path><path d="M384.5,145.5c0,-1.71208 1.38792,-3.1 3.1,-3.1c1.71208,0 3.1,1.38792 3.1,3.1c0,1.71208 -1.38792,3.1 -3.1,3.1c-1.71208,0 -3.1,-1.38792 -3.1,-3.1z" fill="#ff77ff" stroke="#fee6ff" stroke-width="0.9"></path><path d="M384.5,225.4c0,-1.71208 1.38792,-3.1 3.1,-3.1c1.71208,0 3.1,1.38792 3.1,3.1c0,1.71208 -1.38792,3.1 -3.1,3.1c-1.71208,0 -3.1,-1.38792 -3.1,-3.1z" fill="#ff77ff" stroke="#fee6ff" stroke-width="0.9"></path><path d="M407.4,185.6v0c0,18.3 -3.1,28.9 -10.5,35.1h-17.8c8.5,-10.6 10.3,-22.4 10.3,-35.4c0,-13 -1.5,-25.3 -10.3,-35.4h17.8c6.9,5.8 10.5,17.4 10.5,35.6zM405.1,182.9v0c-0.1,-2.5 -0.3,-5 -0.5,-7.4h-3.1c0.3,2.4 0.5,4.9 0.5,7.3h3.1zM403.9,170.7v0c-0.4,-2.4 -1,-4.8 -1.7,-7.1h-3.1c0.7,2.3 1.3,4.6 1.7,7h3.1zM393,154.4h-3.1c0.8,1.3 1.6,2.8 2.3,4.3h3.1c-0.6,-1.5 -1.4,-2.9 -2.3,-4.3zM397.2,163.7h-3.1c0.7,2.3 1.3,4.6 1.6,6.9h3.1c-0.5,-2.3 -1,-4.7 -1.7,-6.9zM396.3,175.6c0.2,2.4 0.4,4.9 0.4,7.3h3.1c0,-2.4 -0.2,-4.9 -0.4,-7.3zM394.3,175.7v0h-3.1c0.1,2.4 0.3,4.8 0.3,7.2h3.1c-0.1,-2.5 -0.2,-4.9 -0.4,-7.3zM391.2,194.7h3.1c0.2,-2.3 0.2,-4.6 0.2,-6.8h-3.1c0,2.3 0,4.6 -0.2,6.8zM395.9,199.1v0c-0.3,2.3 -0.8,4.7 -1.5,6.8h3.1c0.7,-2.2 1.2,-4.5 1.5,-6.7h-3.1zM396.4,194.6h3.1c0.2,-2.2 0.2,-4.5 0.2,-6.7h-3.1c0,2.3 0,4.6 -0.2,6.8zM397.2,158.7h3.1c-0.5,-1.5 -1.4,-2.9 -2.2,-4.3h-3.1c0.9,1.3 1.6,2.8 2.3,4.3zM386.9,158.7h3.1c-0.6,-1.5 -1.4,-3 -2.3,-4.3h-3.1c0.9,1.3 1.7,2.8 2.4,4.3zM389,163.9v0c0.7,2.3 1.2,4.6 1.5,6.8h3.1c-0.4,-2.4 -0.9,-4.7 -1.6,-6.9h-3.1zM389.1,206h3.1c0.7,-2.2 1.2,-4.6 1.5,-6.8h-3.1c-0.3,2.3 -0.8,4.7 -1.5,6.8zM383.8,217h3.1c1.4,-2.1 2.6,-4.1 3.6,-6.3h-3.1M392.2,217c1.3,-2.1 2.5,-4.1 3.5,-6.3h-3.1c-1,2.2 -2.3,4.2 -3.6,6.3zM400.9,210.8h-3.1c-1,2.1 -2.2,4.1 -3.5,6.2h3.1c1.4,-2 2.5,-4.1 3.5,-6.2zM402.7,205.8v0c0.7,-2.1 1.2,-4.4 1.5,-6.6h-3.1c-0.3,2.2 -0.8,4.6 -1.5,6.7h3.1zM404.6,194.7c0.2,-2.2 0.2,-4.5 0.2,-6.7h-3.1c0,2.2 0,4.5 -0.2,6.7z" fill="#000000" stroke="none" stroke-width="0"></path><path d="M376.3,155.6c-4.8,0 -8.8,13.3 -8.8,29.7c0,16.4 3.9,29.7 8.8,29.7c4.9,0 8.8,-13.3 8.8,-29.7c0,-16.4 -3.9,-29.7 -8.8,-29.7zM389.1,185.3c0,20 -5.7,36.3 -12.8,36.3c-7.1,0 -12.9,-16.2 -12.9,-36.2c0,-20 5.8,-36.3 12.9,-36.3c7.1,0 12.8,16.2 12.8,36.3v0z" fill="#ff77ff" stroke="none" stroke-width="0"></path><path d="M389.2,185.3c0,20 -5.7,36.3 -12.8,36.3c-7.1,0 -12.9,-16.3 -12.9,-36.3c0,-20 5.8,-36.3 12.9,-36.3c7.1,0 12.8,16.2 12.8,36.3z" fill="none" stroke="#fee6ff" stroke-width="1.9"></path><path d="M396.2,202.1c0,-1.71208 1.38792,-3.1 3.1,-3.1c1.71208,0 3.1,1.38792 3.1,3.1c0,1.71208 -1.38792,3.1 -3.1,3.1c-1.71208,0 -3.1,-1.38792 -3.1,-3.1z" fill="#ff77ff" stroke="#fee6ff" stroke-width="0.9"></path><path d="M396.2,167.9c0,-1.71208 1.38792,-3.1 3.1,-3.1c1.71208,0 3.1,1.38792 3.1,3.1c0,1.71208 -1.38792,3.1 -3.1,3.1c-1.71208,0 -3.1,-1.38792 -3.1,-3.1z" fill="#ff77ff" stroke="#fee6ff" stroke-width="0.9"></path></g><g stroke="none" stroke-width="0"><path d="M304,117.7l3.8,52.3h-7.7l3.8,-52.3z" fill="#000000"></path><path d="M298.3,119.4c0,-3.1 2.5,-5.7 5.7,-5.7c3.2,0 5.7,2.5 5.7,5.7c0,3.2 -2.5,5.7 -5.7,5.7c-3.2,0 -5.7,-2.5 -5.7,-5.7z" fill="#ff00de"></path></g><g><path d="M208.1,113.4l-1.8,-24h3.5l-1.8,24z" fill="#000000" stroke="none" stroke-width="0"></path><path d="M208,106c3.2,0 5.7,2.5 5.7,5.7c0,3.2 -2.5,5.7 -5.7,5.7c-3.2,0 -5.7,-2.6 -5.7,-5.7c0,-3.2 2.5,-5.7 5.7,-5.7z" fill="#ff00de" stroke="none" stroke-width="0"></path><path d="M192,88.2v-14.2h32v14.2z" fill="#000000" stroke="#ffffff" stroke-width="2"></path></g><path d="M27.5,174.33333v-39.66667h39.66667v39.66667z" fill="#fffee0" stroke="none" stroke-width="0"></path><path d="M366.83333,128.66667v-39.66667h39.66667v39.66667z" fill="#ff77ff" stroke="none" stroke-width="0"></path><path d="M422.08194,128.66667v-39.66667h39.66667v39.66667z" fill="#2bff50" stroke="none" stroke-width="0"></path><g><path d="M453.74252,217.99044v0c0.9,1.1 -1,1.7 -1.3,2.4c-0.2,0.5 -0.7,0.8 -1.2,0.8h-17.9c-11.7,-8.5 -12,-24.3 -12,-34.8c0,-10.5 -0.9,-30.5 12.6,-35.6c8,0 9.8,0.2 17.9,0.2c-1.1,0.3 -3.3,0.6 -4.2,1.2c-0.9,0 -0.5,0 -0.7,0c-4.1,5 -4.1,7.4 -4.1,7.4l0.7,0.2h-1.3c-0.4,0.9 -0.6,1.3 -0.9,2.3h4.1c0.2,-0.6 0.2,-0.9 0.4,-1.3l-0.9,1.3c-2.9,8 0.7,16.6 0.7,24.1c0,7.5 -2.8,14.7 -0.4,21.4v1.4c-0.2,-0.1 -0.2,-0.2 -0.2,-0.4c-1.6,0.2 -2.4,0.2 -4.1,0.2c0.3,0.9 0.5,1.3 0.9,2.2h0.2c0.2,0.9 1.1,3.3 3.9,6.9h7.8zM439.54252,203.29044v0c1.6,0 2.4,0 4.1,0c-0.1,-1 -0.1,-1.4 -0.3,-2.4c-1.6,0 -2.4,0 -4.1,0c0.2,1 0.2,1.4 0.4,2.4zM438.54252,179.49044v0h4.2c0,-1 0,-1.5 0,-2.6h-4.1c0,1 0,1.6 0,2.6zM438.54252,185.19044v2.2h4.2v-2.2zM439.14252,159.89044h-4.1c-0.4,0.9 -0.6,1.3 -0.9,2.3h4.1c0.3,-0.9 0.5,-1.4 0.9,-2.3zM432.64252,168.09044c-0.2,1 -0.2,1.5 -0.4,2.6h4.1c0.2,-1 0.2,-1.5 0.4,-2.6zM431.54252,176.89044c0,1 0,1.6 0,2.6h4.2c0,-1 0,-1.5 0,-2.6zM431.34252,185.19044v2.2h4.2v-2.2zM431.44252,192.89044c0,0.9 0,1.4 0,2.4h4.1c0,-1 0,-1.4 0,-2.4zM436.24252,200.89044v0c-1.6,0 -2.4,0 -4.1,0c0.2,1 0.2,1.5 0.4,2.5c1.6,0 2.4,0 4.1,0c-0.2,-0.9 -0.2,-1.4 -0.4,-2.4zM433.94252,209.09044c0.3,0.9 0.5,1.3 0.9,2.2c1.6,-0.2 2.4,-0.2 4.1,-0.2c-0.4,-0.8 -0.6,-1.3 -0.9,-2.2c-1.6,0.2 -2.4,0.2 -4.1,0.2zM442.64252,195.29044c0,-1 0,-1.5 0,-2.4h-4.1c0,1 0,1.4 0,2.4zM439.64252,168.19044c-0.2,1 -0.2,1.5 -0.4,2.6h4.1c0.2,-1 0.2,-1.5 0.4,-2.6zM437.64252,155.29044h4.1c0.5,-0.8 0.8,-1.1 1.5,-1.7h-4.1c-0.7,0.6 -0.9,1 -1.5,1.7zM430.54252,155.29044h4.1c0.6,-0.8 0.8,-1.1 1.5,-1.7h-4.1c-0.7,0.6 -0.9,1 -1.5,1.7zM426.84252,162.29044h4.1c0.3,-0.9 0.5,-1.4 0.9,-2.3h-4.1c-0.4,0.9 -0.6,1.3 -0.9,2.3zM424.94252,170.79044h4.1c0.2,-1 0.2,-1.5 0.4,-2.6h-4.1c-0.2,1 -0.2,1.5 -0.4,2.6zM424.24252,176.99044v0c-0.2,1 -0.2,1.6 -0.2,2.6h4.2c0.2,-1 0.2,-1.5 0.2,-2.6h-4.1zM424.14252,187.49044h4.2v-2.2h-4.2c0,0.9 0,1.3 0,2.2zM424.34252,192.89044v0c0.2,1 0.2,1.5 0.2,2.5h4.1c-0.2,-0.9 -0.2,-1.4 -0.2,-2.4h-4.1zM425.44252,203.79044c1.6,0 2.4,0 4.1,0c-0.2,-1 -0.2,-1.5 -0.4,-2.5c-1.6,0 -2.4,0 -4.1,0c0.2,1 0.2,1.5 0.4,2.5zM427.04252,209.29044v0c0.3,1 0.5,1.4 0.9,2.3c1.6,-0.2 2.4,-0.2 4.1,-0.2c-0.4,-0.8 -0.6,-1.3 -0.9,-2.2c-1.6,0.2 -2.4,0.2 -4.1,0.2zM432.14252,218.29044v0c1.6,0 2.4,0 4.1,0c-0.7,-0.7 -0.9,-1.2 -1.5,-1.9c-1.6,0.2 -2.4,0.2 -4.1,0.2c0.6,0.7 0.8,1.1 1.5,1.8zM439.14252,217.99044v0c1.6,0 2.4,0 4.1,0c-0.7,-0.7 -1,-1.1 -1.6,-1.9c-1.6,0.2 -2.4,0.2 -4.1,0.2c0.5,0.8 0.8,1.2 1.5,1.9z" fill="#000000" stroke="none" stroke-width="0"></path><path d="M441.44252,146.29044c0,-1.71209 1.38791,-3.1 3.1,-3.1c1.71209,0 3.1,1.38792 3.1,3.1c0,1.71209 -1.38792,3.1 -3.1,3.1c-1.71209,0 -3.1,-1.38791 -3.1,-3.1z" fill="#2bff50" stroke="#e1ffe5" stroke-width="0.9"></path><path d="M441.44252,226.29044c0,-1.71209 1.38791,-3.1 3.1,-3.1c1.71209,0 3.1,1.38791 3.1,3.1c0,1.71209 -1.38792,3.1 -3.1,3.1c-1.71209,0 -3.1,-1.38791 -3.1,-3.1z" fill="#2bff50" stroke="#e1ffe5" stroke-width="0.9"></path><path d="M464.34252,186.39044v0c0,18.3 -3.1,28.9 -10.5,35.1h-17.8c8.5,-10.6 10.3,-22.4 10.3,-35.4c0,-13 -1.5,-25.3 -10.3,-35.4h17.8c6.9,5.8 10.5,17.4 10.5,35.6zM462.04252,183.69044v0c-0.1,-2.5 -0.3,-5 -0.5,-7.4h-3.1c0.3,2.4 0.5,4.9 0.5,7.3h3.1zM460.84252,171.49044v0c-0.4,-2.4 -1,-4.8 -1.7,-7.1h-3.1c0.7,2.3 1.3,4.6 1.7,7h3.1zM449.94252,155.19044h-3.1c0.8,1.3 1.6,2.8 2.3,4.3h3.1c-0.6,-1.5 -1.4,-2.9 -2.3,-4.3zM454.14252,164.49044h-3.1c0.7,2.3 1.3,4.6 1.6,6.9h3.1c-0.5,-2.3 -1,-4.7 -1.7,-6.9zM453.24252,176.39044c0.2,2.4 0.4,4.9 0.4,7.3h3.1c0,-2.4 -0.2,-4.9 -0.4,-7.3zM451.24252,176.49044v0h-3.1c0.1,2.4 0.3,4.8 0.3,7.2h3.1c-0.1,-2.5 -0.2,-4.9 -0.4,-7.3zM448.14252,195.49044h3.1c0.2,-2.3 0.2,-4.6 0.2,-6.8h-3.1c0,2.3 0,4.6 -0.2,6.8zM452.84252,199.89044v0c-0.3,2.3 -0.8,4.7 -1.5,6.8h3.1c0.7,-2.2 1.2,-4.5 1.5,-6.7h-3.1zM453.34252,195.39044h3.1c0.2,-2.2 0.2,-4.5 0.2,-6.7h-3.1c0,2.3 0,4.6 -0.2,6.8zM454.14252,159.49044h3.1c-0.5,-1.5 -1.4,-2.9 -2.2,-4.3h-3.1c0.9,1.3 1.6,2.8 2.3,4.3zM443.84252,159.49044h3.1c-0.6,-1.5 -1.4,-3 -2.3,-4.3h-3.1c0.9,1.3 1.7,2.8 2.4,4.3zM445.94252,164.69044v0c0.7,2.3 1.2,4.6 1.5,6.8h3.1c-0.4,-2.4 -0.9,-4.7 -1.6,-6.9h-3.1zM446.04252,206.79044h3.1c0.7,-2.2 1.2,-4.6 1.5,-6.8h-3.1c-0.3,2.3 -0.8,4.7 -1.5,6.8zM440.74252,217.79044h3.1c1.4,-2.1 2.6,-4.1 3.6,-6.3h-3.1M449.14252,217.79044c1.3,-2.1 2.5,-4.1 3.5,-6.3h-3.1c-1,2.2 -2.3,4.2 -3.6,6.3zM457.84252,211.59044h-3.1c-1,2.1 -2.2,4.1 -3.5,6.2h3.1c1.4,-2 2.5,-4.1 3.5,-6.2zM459.64252,206.59044v0c0.7,-2.1 1.2,-4.4 1.5,-6.6h-3.1c-0.3,2.2 -0.8,4.6 -1.5,6.7h3.1zM461.54252,195.49044c0.2,-2.2 0.2,-4.5 0.2,-6.7h-3.1c0,2.2 0,4.5 -0.2,6.7z" fill="#000000" stroke="none" stroke-width="0"></path><path d="M433.24252,156.39044c-4.8,0 -8.8,13.3 -8.8,29.7c0,16.4 3.9,29.7 8.8,29.7c4.9,0 8.8,-13.3 8.8,-29.7c0,-16.4 -3.9,-29.7 -8.8,-29.7zM446.04252,186.09044c0,20 -5.7,36.3 -12.8,36.3c-7.1,0 -12.9,-16.2 -12.9,-36.2c0,-20 5.8,-36.3 12.9,-36.3c7.1,0 12.8,16.2 12.8,36.3v0z" fill="#2bff50" stroke="none" stroke-width="0"></path><path d="M446.14252,186.19044c0,20 -5.7,36.3 -12.8,36.3c-7.1,0 -12.9,-16.3 -12.9,-36.3c0,-20 5.8,-36.3 12.9,-36.3c7.1,0 12.8,16.2 12.8,36.3z" fill="none" stroke="#e1ffe5" stroke-width="1.9"></path><path d="M453.14252,202.99044c0,-1.71209 1.38792,-3.1 3.1,-3.1c1.71209,0 3.1,1.38791 3.1,3.1c0,1.71209 -1.38791,3.1 -3.1,3.1c-1.71209,0 -3.1,-1.38792 -3.1,-3.1z" fill="#2bff50" stroke="#e1ffe5" stroke-width="0.9"></path><path d="M453.14252,168.69044c0,-1.71209 1.38792,-3.1 3.1,-3.1c1.71209,0 3.1,1.38791 3.1,3.1c0,1.71209 -1.38791,3.1 -3.1,3.1c-1.71209,0 -3.1,-1.38791 -3.1,-3.1z" fill="#2bff50" stroke="#e1ffe5" stroke-width="0.9"></path></g></g></g></svg>