<svg version="1.1" xmlns="http://www.w3.org/2000/svg" xmlns:xlink="http://www.w3.org/1999/xlink" width="45.25" height="34.29167" viewBox="0,0,45.25,34.29167"><g transform="translate(-217.375,-162.85416)"><g data-paper-data="{&quot;isPaintingLayer&quot;:true}" fill-rule="nonzero" stroke-linecap="butt" stroke-linejoin="miter" stroke-miterlimit="10" stroke-dasharray="" stroke-dashoffset="0" style="mix-blend-mode: normal"><path d="M217.375,197.14584v-34.29167h45.25v34.29167z" fill="none" stroke="none" stroke-width="1.5"/><g fill="#7dff00" stroke="#000000" stroke-width="1.5"><path d="M219.81521,191.658v-7.93811h14.49167v7.93811z"/><path d="M224.24577,194.99118v-14.76858l7.84581,3.49728v7.7535z"/><path d="M246.12174,193.50407v-11.63026l14.0631,2.5845v6.46125z"/><path d="M231.81468,193.50407v-11.63026h14.49167v11.63026z"/></g><g stroke="#000000" stroke-width="1"><path d="M231.3182,181.4253v-16.41645h16.41645v16.41645z" fill="#efff00"/><path d="M233.84895,176.97439v-3.37327h11.42782v3.37327c0,0 -1.53895,2.17966 -5.61541,2.23155c-4.29896,-0.10056 -5.81241,-2.23155 -5.81241,-2.23155z" fill="#00ffff"/><path d="M235.50965,171.26577v-3.11378h3.11379v3.11379z" fill="#00ffff"/><path d="M240.5955,171.26577v-3.11378h3.11379v3.11379z" fill="#00ffff"/></g><path d="M227.53602,183.85834v-10.89183h3.48703l0.02051,6.08178l21.59905,1.67172v3.13832z" fill="#00ffff" stroke="#000000" stroke-width="1.5"/></g></g></svg>