<svg version="1.1" xmlns="http://www.w3.org/2000/svg" xmlns:xlink="http://www.w3.org/1999/xlink" width="721" height="386.97767" viewBox="0,0,721,386.97767"><g transform="translate(117.5,40)"><g data-paper-data="{&quot;isPaintingLayer&quot;:true}" fill-rule="nonzero" stroke-linecap="butt" stroke-linejoin="miter" stroke-miterlimit="10" stroke-dasharray="" stroke-dashoffset="0" style="mix-blend-mode: normal"><path d="M-117.5,-6v-34h721v34z" fill="none" stroke="none" stroke-width="0"/><g><path d="M469.39999,211.97501v0c0.9,1.1 -1,1.7 -1.3,2.4c-0.2,0.5 -0.7,0.8 -1.2,0.8h-17.9c-11.7,-8.5 -12,-24.3 -12,-34.8c0,-10.5 -0.9,-30.5 12.6,-35.6c8,0 9.8,0.2 17.9,0.2c-1.1,0.3 -3.3,0.6 -4.2,1.2c-0.9,0 -0.5,0 -0.7,0c-4.1,5 -4.1,7.4 -4.1,7.4l0.7,0.2h-1.3c-0.4,0.9 -0.6,1.3 -0.9,2.3h4.1c0.2,-0.6 0.2,-0.9 0.4,-1.3l-0.9,1.3c-2.9,8 0.7,16.6 0.7,24.1c0,7.5 -2.8,14.7 -0.4,21.4v1.4c-0.2,-0.1 -0.2,-0.2 -0.2,-0.4c-1.6,0.2 -2.4,0.2 -4.1,0.2c0.3,0.9 0.5,1.3 0.9,2.2h0.2c0.2,0.9 1.1,3.3 3.9,6.9h7.8zM455.09999,197.27501v0c1.6,0 2.4,0 4.1,0c-0.1,-1 -0.1,-1.4 -0.3,-2.4c-1.6,0 -2.4,0 -4.1,0c0.2,1 0.2,1.4 0.4,2.4zM454.09999,173.47501v0h4.2c0,-1 0,-1.5 0,-2.6h-4.1c0,1 0,1.6 0,2.6zM454.09999,179.17501v2.2h4.2v-2.2zM454.69999,153.875h-4.1c-0.4,0.9 -0.6,1.3 -0.9,2.3h4.1c0.3,-0.9 0.5,-1.4 0.9,-2.3zM448.19999,162.07501c-0.2,1 -0.2,1.5 -0.4,2.6h4.1c0.2,-1 0.2,-1.5 0.4,-2.6zM447.09999,170.875c0,1 0,1.6 0,2.6h4.2c0,-1 0,-1.5 0,-2.6zM446.89999,179.17501v2.2h4.2v-2.2zM446.99999,186.875c0,0.9 0,1.4 0,2.4h4.1c0,-1 0,-1.4 0,-2.4zM451.79999,194.87501v0c-1.6,0 -2.4,0 -4.1,0c0.2,1 0.2,1.5 0.4,2.5c1.6,0 2.4,0 4.1,0c-0.2,-0.9 -0.2,-1.4 -0.4,-2.4zM449.49999,203.07501c0.3,0.9 0.5,1.3 0.9,2.2c1.6,-0.2 2.4,-0.2 4.1,-0.2c-0.4,-0.8 -0.6,-1.3 -0.9,-2.2c-1.6,0.2 -2.4,0.2 -4.1,0.2zM458.19999,189.27501c0,-1 0,-1.5 0,-2.4h-4.1c0,1 0,1.4 0,2.4zM455.19999,162.17501c-0.2,1 -0.2,1.5 -0.4,2.6h4.1c0.2,-1 0.2,-1.5 0.4,-2.6zM453.19999,149.17501h4.1c0.5,-0.8 0.8,-1.1 1.5,-1.7h-4.1c-0.7,0.6 -0.9,1 -1.5,1.7zM445.99999,149.17501h4.1c0.6,-0.8 0.8,-1.1 1.5,-1.7h-4.1c-0.7,0.6 -0.9,1 -1.5,1.7zM442.29999,156.17501h4.1c0.3,-0.9 0.5,-1.4 0.9,-2.3h-4.1c-0.4,0.9 -0.6,1.3 -0.9,2.3zM440.39999,164.67501h4.1c0.2,-1 0.2,-1.5 0.4,-2.6h-4.1c-0.2,1 -0.2,1.5 -0.4,2.6zM439.79999,170.875v0c-0.2,1 -0.2,1.6 -0.2,2.6h4.2c0.2,-1 0.2,-1.5 0.2,-2.6h-4.1zM439.59999,181.375h4.2v-2.2h-4.2c0,0.9 0,1.3 0,2.2zM439.79999,186.77501v0c0.2,1 0.2,1.5 0.2,2.5h4.1c-0.2,-0.9 -0.2,-1.4 -0.2,-2.4h-4.1zM440.89999,197.57501c1.6,0 2.4,0 4.1,0c-0.2,-1 -0.2,-1.5 -0.4,-2.5c-1.6,0 -2.4,0 -4.1,0c0.2,1 0.2,1.5 0.4,2.5zM442.49999,203.07501v0c0.3,1 0.5,1.4 0.9,2.3c1.6,-0.2 2.4,-0.2 4.1,-0.2c-0.4,-0.8 -0.6,-1.3 -0.9,-2.2c-1.6,0.2 -2.4,0.2 -4.1,0.2zM447.59999,212.17501v0c1.6,0 2.4,0 4.1,0c-0.7,-0.7 -0.9,-1.2 -1.5,-1.9c-1.6,0.2 -2.4,0.2 -4.1,0.2c0.6,0.7 0.8,1.1 1.5,1.8zM454.69999,211.87501v0c1.6,0 2.4,0 4.1,0c-0.7,-0.7 -1,-1.1 -1.6,-1.9c-1.6,0.2 -2.4,0.2 -4.1,0.2c0.5,0.8 0.8,1.2 1.5,1.9z" fill="#000000" stroke="none" stroke-width="0"/><path d="M457.09999,140.27501c0,-1.71208 1.38792,-3.1 3.1,-3.1c1.71208,0 3.1,1.38792 3.1,3.1c0,1.71208 -1.38792,3.1 -3.1,3.1c-1.71208,0 -3.1,-1.38792 -3.1,-3.1z" fill="#2bff50" stroke="#e1ffe5" stroke-width="0.9"/><path d="M457.09999,220.27501c0,-1.71208 1.38792,-3.1 3.1,-3.1c1.71208,0 3.1,1.38792 3.1,3.1c0,1.71208 -1.38792,3.1 -3.1,3.1c-1.71208,0 -3.1,-1.38792 -3.1,-3.1z" fill="#2bff50" stroke="#e1ffe5" stroke-width="0.9"/><path d="M479.99999,180.375v0c0,18.3 -3.1,28.9 -10.5,35.1h-17.8c8.5,-10.6 10.3,-22.4 10.3,-35.4c0,-13 -1.5,-25.3 -10.3,-35.4h17.8c6.9,5.8 10.5,17.4 10.5,35.6zM477.59999,177.67501v0c-0.1,-2.5 -0.3,-5 -0.5,-7.4h-3.1c0.3,2.4 0.5,4.9 0.5,7.3h3.1zM476.39999,165.47501v0c-0.4,-2.4 -1,-4.8 -1.7,-7.1h-3.1c0.7,2.3 1.3,4.6 1.7,7h3.1zM465.49999,149.17501h-3.1c0.8,1.3 1.6,2.8 2.3,4.3h3.1c-0.6,-1.5 -1.4,-2.9 -2.3,-4.3zM469.69999,158.375h-3.1c0.7,2.3 1.3,4.6 1.6,6.9h3.1c-0.5,-2.3 -1,-4.7 -1.7,-6.9zM468.79999,170.27501c0.2,2.4 0.4,4.9 0.4,7.3h3.1c0,-2.4 -0.2,-4.9 -0.4,-7.3zM466.79999,170.375v0h-3.1c0.1,2.4 0.3,4.8 0.3,7.2h3.1c-0.1,-2.5 -0.2,-4.9 -0.4,-7.3zM463.69999,189.47501h3.1c0.2,-2.3 0.2,-4.6 0.2,-6.8h-3.1c0,2.3 0,4.6 -0.2,6.8zM468.39999,193.87501v0c-0.3,2.3 -0.8,4.7 -1.5,6.8h3.1c0.7,-2.2 1.2,-4.5 1.5,-6.7h-3.1zM468.89999,189.27501h3.1c0.2,-2.2 0.2,-4.5 0.2,-6.7h-3.1c0,2.3 0,4.6 -0.2,6.8zM469.69999,153.47501h3.1c-0.5,-1.5 -1.4,-2.9 -2.2,-4.3h-3.1c0.9,1.3 1.6,2.8 2.3,4.3zM459.39999,153.47501h3.1c-0.6,-1.5 -1.4,-3 -2.3,-4.3h-3.1c0.9,1.3 1.7,2.8 2.4,4.3zM461.49999,158.67501v0c0.7,2.3 1.2,4.6 1.5,6.8h3.1c-0.4,-2.4 -0.9,-4.7 -1.6,-6.9h-3.1zM461.69999,200.77501h3.1c0.7,-2.2 1.2,-4.6 1.5,-6.8h-3.1c-0.3,2.3 -0.8,4.7 -1.5,6.8zM456.29999,211.77501h3.1c1.4,-2.1 2.6,-4.1 3.6,-6.3h-3.1M464.79999,211.77501c1.3,-2.1 2.5,-4.1 3.5,-6.3h-3.1c-1,2.2 -2.3,4.2 -3.6,6.3zM473.39999,205.57501h-3.1c-1,2.1 -2.2,4.1 -3.5,6.2h3.1c1.4,-2 2.5,-4.1 3.5,-6.2zM475.19999,200.57501v0c0.7,-2.1 1.2,-4.4 1.5,-6.6h-3.1c-0.3,2.2 -0.8,4.6 -1.5,6.7h3.1zM477.19999,189.37501c0.2,-2.2 0.2,-4.5 0.2,-6.7h-3.1c0,2.2 0,4.5 -0.2,6.7z" fill="#000000" stroke="none" stroke-width="0"/><path d="M448.89999,150.375c-4.8,0 -8.8,13.3 -8.8,29.7c0,16.4 3.9,29.7 8.8,29.7c4.9,0 8.8,-13.3 8.8,-29.7c0,-16.4 -3.9,-29.7 -8.8,-29.7zM461.79999,180.07501c0,20 -5.7,36.3 -12.8,36.3c-7.1,0 -12.9,-16.2 -12.9,-36.2c0,-20 5.8,-36.3 12.9,-36.3c7.1,0 12.8,16.2 12.8,36.3v0z" fill="#2bff50" stroke="none" stroke-width="0"/><path d="M461.79999,180.17501c0,20 -5.7,36.3 -12.8,36.3c-7.1,0 -12.9,-16.3 -12.9,-36.3c0,-20 5.8,-36.3 12.9,-36.3c7.1,0 12.8,16.2 12.8,36.3z" fill="none" stroke="#e1ffe5" stroke-width="1.9"/><path d="M468.79999,196.97501c0,-1.71208 1.38792,-3.1 3.1,-3.1c1.71208,0 3.1,1.38792 3.1,3.1c0,1.71208 -1.38792,3.1 -3.1,3.1c-1.71208,0 -3.1,-1.38792 -3.1,-3.1z" fill="#2bff50" stroke="#e1ffe5" stroke-width="0.9"/><path d="M468.79999,162.67501c0,-1.71208 1.38792,-3.1 3.1,-3.1c1.71208,0 3.1,1.38792 3.1,3.1c0,1.71208 -1.38792,3.1 -3.1,3.1c-1.71208,0 -3.1,-1.38792 -3.1,-3.1z" fill="#2bff50" stroke="#e1ffe5" stroke-width="0.9"/></g><path d="M444.20302,345.97767v-35.71749h35.95965v35.71749z" fill="#000000" stroke="#ffffff" stroke-width="2"/><path d="M444.20302,309.97767v-35.71749h35.95965v35.71749z" fill="#000000" stroke="#ffffff" stroke-width="2"/><path d="M443.20302,273.97767v-35.71749h35.95965v35.71749z" fill="#000000" stroke="#ffffff" stroke-width="2"/><path d="M371.20302,273.97767v-35.71749h35.95965v35.71749z" fill="#000000" stroke="#ffffff" stroke-width="2"/><path d="M407.70302,309.47767v-35.71749h35.95965v35.71749z" fill="#000000" stroke="#ffffff" stroke-width="2"/><path d="M407.70302,274.47767v-35.71749h35.95965v35.71749z" fill="#000000" stroke="#ffffff" stroke-width="2"/><path d="M402.20302,96.97767v-35.71749h35.95965v35.71749z" fill="#000000" stroke="#ffffff" stroke-width="2"/><path d="M402.20302,133.97767v-35.71749h35.95965v35.71749z" fill="#000000" stroke="#ffffff" stroke-width="2"/><path d="M439.20302,60.97767v-35.71749h35.95965v35.71749z" fill="#000000" stroke="#ffffff" stroke-width="2"/><path d="M439.20302,96.97767v-35.71749h35.95965v35.71749z" fill="#000000" stroke="#ffffff" stroke-width="2"/><path d="M439.20302,132.97767v-35.71749h35.95965v35.71749z" fill="#000000" stroke="#ffffff" stroke-width="2"/><path d="M365.70302,133.47767v-35.71749h35.95965v35.71749z" fill="#000000" stroke="#ffffff" stroke-width="2"/></g></g></svg>