<svg version="1.1" xmlns="http://www.w3.org/2000/svg" xmlns:xlink="http://www.w3.org/1999/xlink" width="721" height="404.27688" viewBox="0,0,721,404.27688"><g transform="translate(117.5,40)"><g data-paper-data="{&quot;isPaintingLayer&quot;:true}" fill-rule="nonzero" stroke-linecap="butt" stroke-linejoin="miter" stroke-miterlimit="10" stroke-dasharray="" stroke-dashoffset="0" style="mix-blend-mode: normal"><path d="M-117.5,-6v-34h721v34z" fill="none" stroke="none" stroke-width="0"/><path d="M223.8,360.57501c-1.4,1.1 -28.7,0.9 -29.6,0c0,-4.1 6.6,-7.4 14.8,-7.4c8.2,0 14.8,3.3 14.8,7.4z" fill="#fbff00" stroke="#fffede" stroke-width="1.9"/><path d="M317.8,362.57501c-1.4,1.1 -28.7,0.9 -29.6,0c0,-4.1 6.6,-7.4 14.8,-7.4c8.2,0 14.8,3.3 14.8,7.4z" fill="#fbff00" stroke="#fffede" stroke-width="1.9"/><path d="M195.02018,197.85875v-35.71749h35.95965v35.71749z" fill="#000000" stroke="#ffffff" stroke-width="2"/><path d="M267.02018,197.85875v-35.71749h35.95965v35.71749z" fill="#000000" stroke="#ffffff" stroke-width="2"/><path d="M304.02018,197.85875v-35.71749h35.95965v35.71749z" fill="#000000" stroke="#ffffff" stroke-width="2"/><path d="M231.02018,197.85875v-35.71749h35.95965v35.71749z" fill="#000000" stroke="#ffffff" stroke-width="2"/></g></g></svg>