<svg version="1.1" xmlns="http://www.w3.org/2000/svg" xmlns:xlink="http://www.w3.org/1999/xlink" width="45.25" height="34.29167" viewBox="0,0,45.25,34.29167"><g transform="translate(-217.375,-162.85417)"><g data-paper-data="{&quot;isPaintingLayer&quot;:true}" fill-rule="nonzero" stroke-linecap="butt" stroke-linejoin="miter" stroke-miterlimit="10" stroke-dasharray="" stroke-dashoffset="0" style="mix-blend-mode: normal"><path d="M262.625,162.85417v34.29167h-45.25v-34.29167z" data-paper-data="{&quot;index&quot;:null}" fill="none" stroke="none" stroke-width="1.5"/><g data-paper-data="{&quot;index&quot;:null}" fill="#7dff00" stroke="#000000" stroke-width="1.5"><path d="M234.30688,168.34201v7.93811h-14.49167v-7.93811z"/><path d="M232.09158,168.52663v7.7535l-7.84581,3.49728v-14.76858z"/><path d="M260.18484,169.08045v6.46125l-14.0631,2.5845v-11.63026z"/><path d="M246.30635,166.49594v11.63026h-14.49167v-11.63026z"/></g><g data-paper-data="{&quot;index&quot;:null}" stroke="#000000" stroke-width="1"><path d="M247.73465,178.57471v16.41645h-16.41645v-16.41645z" fill="#efff00"/><path d="M239.66136,180.79407c4.07646,0.05189 5.61541,2.23155 5.61541,2.23155v3.37327h-11.42782v-3.37327c0,0 1.51345,-2.13099 5.81241,-2.23155z" fill="#00ffff"/><path d="M238.62344,188.73423v3.11379h-3.11379v-3.11378z" fill="#00ffff"/><path d="M243.70929,188.73423v3.11379h-3.11379v-3.11378z" fill="#00ffff"/></g><path d="M252.64261,176.14168v3.13832l-21.59905,1.67172l-0.02051,6.08178h-3.48703v-10.89183z" data-paper-data="{&quot;index&quot;:null}" fill="#00ffff" stroke="#000000" stroke-width="1.5"/></g></g></svg>