<svg version="1.1" xmlns="http://www.w3.org/2000/svg" xmlns:xlink="http://www.w3.org/1999/xlink" width="583" height="449.04984" viewBox="0,0,583,449.04984"><g transform="translate(48.79999,88.04984)"><g data-paper-data="{&quot;isPaintingLayer&quot;:true}" fill-rule="nonzero" stroke-linecap="butt" stroke-linejoin="miter" stroke-miterlimit="10" stroke-dasharray="" stroke-dashoffset="0" style="mix-blend-mode: normal"><path d="M0,74v-32h32v32z" fill="#000000" stroke="#ffffff" stroke-width="2"></path><path d="M32,74v-32h32v32z" fill="#000000" stroke="#ffffff" stroke-width="2"></path><path d="M64,74v-32h32v32z" fill="#000000" stroke="#ffffff" stroke-width="2"></path><path d="M96,74v-32h32v32z" fill="#000000" stroke="#ffffff" stroke-width="2"></path><path d="M128,74v-32h32v32z" fill="#000000" stroke="#ffffff" stroke-width="2"></path><path d="M160,74v-32h32v32z" fill="#000000" stroke="#ffffff" stroke-width="2"></path><path d="M192,74v-32h32v32z" fill="#000000" stroke="#ffffff" stroke-width="2"></path><path d="M224,74v-32h32v32z" fill="#000000" stroke="#ffffff" stroke-width="2"></path><path d="M256,74v-32h32v32z" fill="#000000" stroke="#ffffff" stroke-width="2"></path><path d="M288,74v-32h32v32z" fill="#000000" stroke="#ffffff" stroke-width="2"></path><path d="M320,74v-32h32v32z" fill="#000000" stroke="#ffffff" stroke-width="2"></path><path d="M352,74v-32h32v32z" fill="#000000" stroke="#ffffff" stroke-width="2"></path><path d="M384,74v-32h32v32z" fill="#000000" stroke="#ffffff" stroke-width="2"></path><path d="M416,74v-32h32v32z" fill="#000000" stroke="#ffffff" stroke-width="2"></path><path d="M448,74v-32h32v32z" fill="#000000" stroke="#ffffff" stroke-width="2"></path><path d="M0,106v-32h32v32z" fill="#000000" stroke="#ffffff" stroke-width="2"></path><path d="M32,106v-32h32v32z" fill="#000000" stroke="#ffffff" stroke-width="2"></path><path d="M64,106v-32h32v32z" fill="#000000" stroke="#ffffff" stroke-width="2"></path><path d="M96,106v-32h32v32z" fill="#000000" stroke="#ffffff" stroke-width="2"></path><path d="M128,106v-32h32v32z" fill="#000000" stroke="#ffffff" stroke-width="2"></path><path d="M160,106v-32h32v32z" fill="#000000" stroke="#ffffff" stroke-width="2"></path><path d="M192,106v-32h32v32z" fill="#000000" stroke="#ffffff" stroke-width="2"></path><path d="M224,106v-32h32v32z" fill="#000000" stroke="#ffffff" stroke-width="2"></path><path d="M256,106v-32h32v32z" fill="#000000" stroke="#ffffff" stroke-width="2"></path><path d="M288,106v-32h32v32z" fill="#000000" stroke="#ffffff" stroke-width="2"></path><path d="M320,106v-32h32v32z" fill="#000000" stroke="#ffffff" stroke-width="2"></path><path d="M352,106v-32h32v32z" fill="#000000" stroke="#ffffff" stroke-width="2"></path><path d="M384,106v-32h32v32z" fill="#000000" stroke="#ffffff" stroke-width="2"></path><path d="M416,106v-32h32v32z" fill="#000000" stroke="#ffffff" stroke-width="2"></path><path d="M448,106v-32h32v32z" fill="#000000" stroke="#ffffff" stroke-width="2"></path><path d="M0,138v-32h32v32z" fill="#000000" stroke="#ffffff" stroke-width="2"></path><path d="M32,138v-32h32v32z" fill="#000000" stroke="#ffffff" stroke-width="2"></path><path d="M64,138v-32h32v32z" fill="#000000" stroke="#ffffff" stroke-width="2"></path><path d="M96,138v-32h32v32z" fill="#000000" stroke="#ffffff" stroke-width="2"></path><path d="M128,138v-32h32v32z" fill="#000000" stroke="#ffffff" stroke-width="2"></path><path d="M160,138v-32h32v32z" fill="#000000" stroke="#ffffff" stroke-width="2"></path><path d="M192,138v-32h32v32z" fill="#000000" stroke="#ffffff" stroke-width="2"></path><path d="M224,138v-32h32v32z" fill="#000000" stroke="#ffffff" stroke-width="2"></path><path d="M256,138v-32h32v32z" fill="#000000" stroke="#ffffff" stroke-width="2"></path><path d="M288,138v-32h32v32z" fill="#000000" stroke="#ffffff" stroke-width="2"></path><path d="M320,138v-32h32v32z" fill="#000000" stroke="#ffffff" stroke-width="2"></path><path d="M352,138v-32h32v32z" fill="#000000" stroke="#ffffff" stroke-width="2"></path><path d="M384,138v-32h32v32z" fill="#000000" stroke="#ffffff" stroke-width="2"></path><path d="M416,138v-32h32v32z" fill="#000000" stroke="#ffffff" stroke-width="2"></path><path d="M448,138v-32h32v32z" fill="#000000" stroke="#ffffff" stroke-width="2"></path><path d="M0,10v-32h32v32z" fill="#000000" stroke="#ffffff" stroke-width="2"></path><path d="M32,10v-32h32v32z" fill="#000000" stroke="#ffffff" stroke-width="2"></path><path d="M64,10v-32h32v32z" fill="#000000" stroke="#ffffff" stroke-width="2"></path><path d="M96,10v-32h32v32z" fill="#000000" stroke="#ffffff" stroke-width="2"></path><path d="M128,10v-32h32v32z" fill="#000000" stroke="#ffffff" stroke-width="2"></path><path d="M160,10v-32h32v32z" fill="#000000" stroke="#ffffff" stroke-width="2"></path><path d="M192,10v-32h32v32z" fill="#000000" stroke="#ffffff" stroke-width="2"></path><path d="M224,10v-32h32v32z" fill="#000000" stroke="#ffffff" stroke-width="2"></path><path d="M256,10v-32h32v32z" fill="#000000" stroke="#ffffff" stroke-width="2"></path><path d="M288,10v-32h32v32z" fill="#000000" stroke="#ffffff" stroke-width="2"></path><path d="M320,10v-32h32v32z" fill="#000000" stroke="#ffffff" stroke-width="2"></path><path d="M352,10v-32h32v32z" fill="#000000" stroke="#ffffff" stroke-width="2"></path><path d="M384,10v-32h32v32z" fill="#000000" stroke="#ffffff" stroke-width="2"></path><path d="M416,10v-32h32v32z" fill="#000000" stroke="#ffffff" stroke-width="2"></path><path d="M448,10v-32h32v32z" fill="#000000" stroke="#ffffff" stroke-width="2"></path><path d="M0,42v-32h32v32z" fill="#000000" stroke="#ffffff" stroke-width="2"></path><path d="M32,42v-32h32v32z" fill="#000000" stroke="#ffffff" stroke-width="2"></path><path d="M64,42v-32h32v32z" fill="#000000" stroke="#ffffff" stroke-width="2"></path><path d="M96,42v-32h32v32z" fill="#000000" stroke="#ffffff" stroke-width="2"></path><path d="M128,42v-32h32v32z" fill="#000000" stroke="#ffffff" stroke-width="2"></path><path d="M160,42v-32h32v32z" fill="#000000" stroke="#ffffff" stroke-width="2"></path><path d="M192,42v-32h32v32z" fill="#000000" stroke="#ffffff" stroke-width="2"></path><path d="M224,42v-32h32v32z" fill="#000000" stroke="#ffffff" stroke-width="2"></path><path d="M256,42v-32h32v32z" fill="#000000" stroke="#ffffff" stroke-width="2"></path><path d="M288,42v-32h32v32z" fill="#000000" stroke="#ffffff" stroke-width="2"></path><path d="M320,42v-32h32v32z" fill="#000000" stroke="#ffffff" stroke-width="2"></path><path d="M352,42v-32h32v32z" fill="#000000" stroke="#ffffff" stroke-width="2"></path><path d="M384,42v-32h32v32z" fill="#000000" stroke="#ffffff" stroke-width="2"></path><path d="M416,42v-32h32v32z" fill="#000000" stroke="#ffffff" stroke-width="2"></path><path d="M448,42v-32h32v32z" fill="#000000" stroke="#ffffff" stroke-width="2"></path><path d="M0,170v-32h32v32z" fill="#000000" stroke="#ffffff" stroke-width="2"></path><path d="M32,170v-32h32v32z" fill="#000000" stroke="#ffffff" stroke-width="2"></path><path d="M64,170v-32h32v32z" fill="#000000" stroke="#ffffff" stroke-width="2"></path><path d="M96,170v-32h32v32z" fill="#000000" stroke="#ffffff" stroke-width="2"></path><path d="M128,170v-32h32v32z" fill="#000000" stroke="#ffffff" stroke-width="2"></path><path d="M160,170v-32h32v32z" fill="#000000" stroke="#ffffff" stroke-width="2"></path><path d="M192,170v-32h32v32z" fill="#000000" stroke="#ffffff" stroke-width="2"></path><path d="M224,170v-32h32v32z" fill="#000000" stroke="#ffffff" stroke-width="2"></path><path d="M256,170v-32h32v32z" fill="#000000" stroke="#ffffff" stroke-width="2"></path><path d="M288,170v-32h32v32z" fill="#000000" stroke="#ffffff" stroke-width="2"></path><path d="M320,170v-32h32v32z" fill="#000000" stroke="#ffffff" stroke-width="2"></path><path d="M352,170v-32h32v32z" fill="#000000" stroke="#ffffff" stroke-width="2"></path><path d="M384,170v-32h32v32z" fill="#000000" stroke="#ffffff" stroke-width="2"></path><path d="M416,170v-32h32v32z" fill="#000000" stroke="#ffffff" stroke-width="2"></path><path d="M448,170v-32h32v32z" fill="#000000" stroke="#ffffff" stroke-width="2"></path><path d="M0,202v-32h32v32z" fill="#000000" stroke="#ffffff" stroke-width="2"></path><path d="M32,202v-32h32v32z" fill="#000000" stroke="#ffffff" stroke-width="2"></path><path d="M64,202v-32h32v32z" fill="#000000" stroke="#ffffff" stroke-width="2"></path><path d="M96,202v-32h32v32z" fill="#000000" stroke="#ffffff" stroke-width="2"></path><path d="M128,202v-32h32v32z" fill="#000000" stroke="#ffffff" stroke-width="2"></path><path d="M160,202v-32h32v32z" fill="#000000" stroke="#ffffff" stroke-width="2"></path><path d="M192,202v-32h32v32z" fill="#000000" stroke="#ffffff" stroke-width="2"></path><path d="M224,202v-32h32v32z" fill="#000000" stroke="#ffffff" stroke-width="2"></path><path d="M256,202v-32h32v32z" fill="#000000" stroke="#ffffff" stroke-width="2"></path><path d="M288,202v-32h32v32z" fill="#000000" stroke="#ffffff" stroke-width="2"></path><path d="M320,202v-32h32v32z" fill="#000000" stroke="#ffffff" stroke-width="2"></path><path d="M352,202v-32h32v32z" fill="#000000" stroke="#ffffff" stroke-width="2"></path><path d="M384,202v-32h32v32z" fill="#000000" stroke="#ffffff" stroke-width="2"></path><path d="M416,202v-32h32v32z" fill="#000000" stroke="#ffffff" stroke-width="2"></path><path d="M448,202v-32h32v32z" fill="#000000" stroke="#ffffff" stroke-width="2"></path><path d="M0,234v-32h32v32z" fill="#000000" stroke="#ffffff" stroke-width="2"></path><path d="M32,234v-32h32v32z" fill="#000000" stroke="#ffffff" stroke-width="2"></path><path d="M64,234v-32h32v32z" fill="#000000" stroke="#ffffff" stroke-width="2"></path><path d="M96,234v-32h32v32z" fill="#000000" stroke="#ffffff" stroke-width="2"></path><path d="M128,234v-32h32v32z" fill="#000000" stroke="#ffffff" stroke-width="2"></path><path d="M160,234v-32h32v32z" fill="#000000" stroke="#ffffff" stroke-width="2"></path><path d="M192,234v-32h32v32z" fill="#000000" stroke="#ffffff" stroke-width="2"></path><path d="M224,234v-32h32v32z" fill="#000000" stroke="#ffffff" stroke-width="2"></path><path d="M256,234v-32h32v32z" fill="#000000" stroke="#ffffff" stroke-width="2"></path><path d="M288,234v-32h32v32z" fill="#000000" stroke="#ffffff" stroke-width="2"></path><path d="M320,234v-32h32v32z" fill="#000000" stroke="#ffffff" stroke-width="2"></path><path d="M352,234v-32h32v32z" fill="#000000" stroke="#ffffff" stroke-width="2"></path><path d="M384,234v-32h32v32z" fill="#000000" stroke="#ffffff" stroke-width="2"></path><path d="M416,234v-32h32v32z" fill="#000000" stroke="#ffffff" stroke-width="2"></path><path d="M448,234v-32h32v32z" fill="#000000" stroke="#ffffff" stroke-width="2"></path><path d="M0,265v-32h32v32z" fill="#000000" stroke="#ffffff" stroke-width="2"></path><path d="M32,265v-32h32v32z" fill="#000000" stroke="#ffffff" stroke-width="2"></path><path d="M64,265v-32h32v32z" fill="#000000" stroke="#ffffff" stroke-width="2"></path><path d="M96,265v-32h32v32z" fill="#000000" stroke="#ffffff" stroke-width="2"></path><path d="M128,265v-32h32v32z" fill="#000000" stroke="#ffffff" stroke-width="2"></path><path d="M160,265v-32h32v32z" fill="#000000" stroke="#ffffff" stroke-width="2"></path><path d="M192,265v-32h32v32z" fill="#000000" stroke="#ffffff" stroke-width="2"></path><path d="M224,265v-32h32v32z" fill="#000000" stroke="#ffffff" stroke-width="2"></path><path d="M256,265v-32h32v32z" fill="#000000" stroke="#ffffff" stroke-width="2"></path><path d="M288,265v-32h32v32z" fill="#000000" stroke="#ffffff" stroke-width="2"></path><path d="M320,265v-32h32v32z" fill="#000000" stroke="#ffffff" stroke-width="2"></path><path d="M352,265v-32h32v32z" fill="#000000" stroke="#ffffff" stroke-width="2"></path><path d="M384,265v-32h32v32z" fill="#000000" stroke="#ffffff" stroke-width="2"></path><path d="M416,265v-32h32v32z" fill="#000000" stroke="#ffffff" stroke-width="2"></path><path d="M448,266v-32h32v32z" fill="#000000" stroke="#ffffff" stroke-width="2"></path><path d="M0,297v-32h32v32z" fill="#000000" stroke="#ffffff" stroke-width="2"></path><path d="M32,297v-32h32v32z" fill="#000000" stroke="#ffffff" stroke-width="2"></path><path d="M64,297v-32h32v32z" fill="#000000" stroke="#ffffff" stroke-width="2"></path><path d="M96,297v-32h32v32z" fill="#000000" stroke="#ffffff" stroke-width="2"></path><path d="M128,297v-32h32v32z" fill="#000000" stroke="#ffffff" stroke-width="2"></path><path d="M160,297v-32h32v32z" fill="#000000" stroke="#ffffff" stroke-width="2"></path><path d="M192,297v-32h32v32z" fill="#000000" stroke="#ffffff" stroke-width="2"></path><path d="M224,297v-32h32v32z" fill="#000000" stroke="#ffffff" stroke-width="2"></path><path d="M256,297v-32h32v32z" fill="#000000" stroke="#ffffff" stroke-width="2"></path><path d="M288,297v-32h32v32z" fill="#000000" stroke="#ffffff" stroke-width="2"></path><path d="M320,297v-32h32v32z" fill="#000000" stroke="#ffffff" stroke-width="2"></path><path d="M352,297v-32h32v32z" fill="#000000" stroke="#ffffff" stroke-width="2"></path><path d="M384,297v-32h32v32z" fill="#000000" stroke="#ffffff" stroke-width="2"></path><path d="M416,297v-32h32v32z" fill="#000000" stroke="#ffffff" stroke-width="2"></path><path d="M448,297v-32h32v32z" fill="#000000" stroke="#ffffff" stroke-width="2"></path><path d="M0,329v-32h32v32z" fill="#000000" stroke="#ffffff" stroke-width="2"></path><path d="M32,329v-32h32v32z" fill="#000000" stroke="#ffffff" stroke-width="2"></path><path d="M64,329v-32h32v32z" fill="#000000" stroke="#ffffff" stroke-width="2"></path><path d="M96,329v-32h32v32z" fill="#000000" stroke="#ffffff" stroke-width="2"></path><path d="M128,329v-32h32v32z" fill="#000000" stroke="#ffffff" stroke-width="2"></path><path d="M160,329v-32h32v32z" fill="#000000" stroke="#ffffff" stroke-width="2"></path><path d="M192,329v-32h32v32z" fill="#000000" stroke="#ffffff" stroke-width="2"></path><path d="M224,329v-32h32v32z" fill="#000000" stroke="#ffffff" stroke-width="2"></path><path d="M256,329v-32h32v32z" fill="#000000" stroke="#ffffff" stroke-width="2"></path><path d="M288,329v-32h32v32z" fill="#000000" stroke="#ffffff" stroke-width="2"></path><path d="M320,329v-32h32v32z" fill="#000000" stroke="#ffffff" stroke-width="2"></path><path d="M352,329v-32h32v32z" fill="#000000" stroke="#ffffff" stroke-width="2"></path><path d="M384,329v-32h32v32z" fill="#000000" stroke="#ffffff" stroke-width="2"></path><path d="M416,329v-32h32v32z" fill="#000000" stroke="#ffffff" stroke-width="2"></path><path d="M448,329v-32h32v32z" fill="#000000" stroke="#ffffff" stroke-width="2"></path><path d="M0,360v-32h32v32z" fill="#000000" stroke="#ffffff" stroke-width="2"></path><path d="M32,360v-32h32v32z" fill="#000000" stroke="#ffffff" stroke-width="2"></path><path d="M64,360v-32h32v32z" fill="#000000" stroke="#ffffff" stroke-width="2"></path><path d="M96,360v-32h32v32z" fill="#000000" stroke="#ffffff" stroke-width="2"></path><path d="M128,360v-32h32v32z" fill="#000000" stroke="#ffffff" stroke-width="2"></path><path d="M160,360v-32h32v32z" fill="#000000" stroke="#ffffff" stroke-width="2"></path><path d="M192,360v-32h32v32z" fill="#000000" stroke="#ffffff" stroke-width="2"></path><path d="M224,360v-32h32v32z" fill="#000000" stroke="#ffffff" stroke-width="2"></path><path d="M256,360v-32h32v32z" fill="#000000" stroke="#ffffff" stroke-width="2"></path><path d="M288,360v-32h32v32z" fill="#000000" stroke="#ffffff" stroke-width="2"></path><path d="M320,360v-32h32v32z" fill="#000000" stroke="#ffffff" stroke-width="2"></path><path d="M352,360v-32h32v32z" fill="#000000" stroke="#ffffff" stroke-width="2"></path><path d="M384,360v-32h32v32z" fill="#000000" stroke="#ffffff" stroke-width="2"></path><path d="M416,360v-32h32v32z" fill="#000000" stroke="#ffffff" stroke-width="2"></path><path d="M448,360v-32h32v32z" fill="#000000" stroke="#ffffff" stroke-width="2"></path><path d="M-48.79999,-79.04984v-9h583v9z" fill="none" stroke="none" stroke-width="0"></path><path d="M0,-22v-32h32v32z" fill="#000000" stroke="#ffffff" stroke-width="2"></path><path d="M32,-22v-32h32v32z" fill="#000000" stroke="#ffffff" stroke-width="2"></path><path d="M64,-22v-32h32v32z" fill="#000000" stroke="#ffffff" stroke-width="2"></path><path d="M96,-22v-32h32v32z" fill="#000000" stroke="#ffffff" stroke-width="2"></path><path d="M128,-22v-32h32v32z" fill="#000000" stroke="#ffffff" stroke-width="2"></path><path d="M160,-22v-32h32v32z" fill="#000000" stroke="#ffffff" stroke-width="2"></path><path d="M192,-22v-32h32v32z" fill="#000000" stroke="#ffffff" stroke-width="2"></path><path d="M224,-22v-32h32v32z" fill="#000000" stroke="#ffffff" stroke-width="2"></path><path d="M256,-22v-32h32v32z" fill="#000000" stroke="#ffffff" stroke-width="2"></path><path d="M288,-22v-32h32v32z" fill="#000000" stroke="#ffffff" stroke-width="2"></path><path d="M320,-22v-32h32v32z" fill="#000000" stroke="#ffffff" stroke-width="2"></path><path d="M352,-22v-32h32v32z" fill="#000000" stroke="#ffffff" stroke-width="2"></path><path d="M384,-22v-32h32v32z" fill="#000000" stroke="#ffffff" stroke-width="2"></path><path d="M416,-22v-32h32v32z" fill="#000000" stroke="#ffffff" stroke-width="2"></path><path d="M448,-22v-32h32v32z" fill="#000000" stroke="#ffffff" stroke-width="2"></path></g></g></svg>