<svg version="1.1" xmlns="http://www.w3.org/2000/svg" xmlns:xlink="http://www.w3.org/1999/xlink" width="721" height="407.42916" viewBox="0,0,721,407.42916"><g transform="translate(117.5,40)"><g data-paper-data="{&quot;isPaintingLayer&quot;:true}" fill-rule="nonzero" stroke-linejoin="miter" stroke-miterlimit="10" stroke-dasharray="" stroke-dashoffset="0" style="mix-blend-mode: normal"><path d="M-1.66664,366.42916h482" fill="none" stroke="#ffffff" stroke-width="2" stroke-linecap="round"/><path d="M36.65117,361.05956l15.48582,-21.71168l14.82755,21.59165z" fill="#000000" stroke="#fff4d6" stroke-width="2" stroke-linecap="butt"/><path d="M231.84936,361.05956l15.48582,-21.71168l14.82755,21.59165z" fill="#000000" stroke="#fff4d6" stroke-width="2" stroke-linecap="butt"/><path d="M131.75026,361.05956l15.48582,-21.71168l14.82755,21.59165z" fill="#000000" stroke="#fff4d6" stroke-width="2" stroke-linecap="butt"/><path d="M328.94846,360.05956l15.48582,-21.71168l14.82755,21.59165z" fill="#000000" stroke="#fff4d6" stroke-width="2" stroke-linecap="butt"/><path d="M70.6812,361.55506l15.48582,-21.71168l14.82755,21.59165z" fill="#000000" stroke="#fff4d6" stroke-width="2" stroke-linecap="butt"/><path d="M263.87939,360.55506l15.48582,-21.71168l14.82755,21.59165z" fill="#000000" stroke="#fff4d6" stroke-width="2" stroke-linecap="butt"/><path d="M165.78029,361.55506l15.48582,-21.71168l14.82755,21.59165z" fill="#000000" stroke="#fff4d6" stroke-width="2" stroke-linecap="butt"/><path d="M362.97849,359.55506l15.48582,-21.71168l14.82755,21.59165z" fill="#000000" stroke="#fff4d6" stroke-width="2" stroke-linecap="butt"/><path d="M103.20972,362.05055l15.48582,-21.71168l14.82755,21.59165z" fill="#000000" stroke="#fff4d6" stroke-width="2" stroke-linecap="butt"/><path d="M295.40792,361.05055l15.48582,-21.71168l14.82755,21.59165z" fill="#000000" stroke="#fff4d6" stroke-width="2" stroke-linecap="butt"/><path d="M198.30882,362.05055l15.48582,-21.71168l14.82755,21.59165z" fill="#000000" stroke="#fff4d6" stroke-width="2" stroke-linecap="butt"/><path d="M395.50702,360.05055l15.48582,-21.71168l14.82755,21.59165z" fill="#000000" stroke="#fff4d6" stroke-width="2" stroke-linecap="butt"/><path d="M428.53705,360.05055l15.48582,-21.71168l14.82755,21.59165z" fill="#000000" stroke="#fff4d6" stroke-width="2" stroke-linecap="butt"/><path d="M457.53705,361.05055l15.48582,-21.71168l14.82755,21.59165z" fill="#000000" stroke="#fff4d6" stroke-width="2" stroke-linecap="butt"/><path d="M-117.5,-6v-34h721v34z" fill="none" stroke="none" stroke-width="0" stroke-linecap="butt"/><g stroke-linecap="butt"><path d="M18.9,319.3l-1.8,-24h3.5l-1.8,24z" fill="#000000" stroke="none" stroke-width="0"/><path d="M18.9,311.8c3.2,0 5.7,2.5 5.7,5.7c0,3.2 -2.5,5.7 -5.7,5.7c-3.2,0 -5.7,-2.6 -5.7,-5.7c0,-3.2 2.5,-5.7 5.7,-5.7z" fill="#ff00de" stroke="none" stroke-width="0"/><path d="M3,294.2v-14.2h32v14.2z" fill="#000000" stroke="#ffffff" stroke-width="2"/></g><g stroke-linecap="butt"><path d="M108.9,269.3l-1.8,-24h3.5l-1.8,24z" fill="#000000" stroke="none" stroke-width="0"/><path d="M108.9,261.8c3.2,0 5.7,2.5 5.7,5.7c0,3.2 -2.5,5.7 -5.7,5.7c-3.2,0 -5.7,-2.6 -5.7,-5.7c0,-3.2 2.5,-5.7 5.7,-5.7z" fill="#ff00de" stroke="none" stroke-width="0"/><path d="M93,244.2v-14.2h32v14.2z" fill="#000000" stroke="#ffffff" stroke-width="2"/></g><g stroke-linecap="butt"><path d="M207.9,213.3l-1.8,-24h3.5l-1.8,24z" fill="#000000" stroke="none" stroke-width="0"/><path d="M207.9,205.8c3.2,0 5.7,2.5 5.7,5.7c0,3.2 -2.5,5.7 -5.7,5.7c-3.2,0 -5.7,-2.6 -5.7,-5.7c0,-3.2 2.5,-5.7 5.7,-5.7z" fill="#ff00de" stroke="none" stroke-width="0"/><path d="M192,188.2v-14.2h32v14.2z" fill="#000000" stroke="#ffffff" stroke-width="2"/></g><g stroke-linecap="butt"><path d="M312.9,143.3l-1.8,-24h3.5l-1.8,24z" fill="#000000" stroke="none" stroke-width="0"/><path d="M312.9,135.8c3.2,0 5.7,2.5 5.7,5.7c0,3.2 -2.5,5.7 -5.7,5.7c-3.2,0 -5.7,-2.6 -5.7,-5.7c0,-3.2 2.5,-5.7 5.7,-5.7z" fill="#ff00de" stroke="none" stroke-width="0"/><path d="M297,118.2v-14.2h32v14.2z" fill="#000000" stroke="#ffffff" stroke-width="2"/></g><g stroke-linecap="butt"><path d="M442.9,88.3l-1.8,-24h3.5l-1.8,24z" fill="#000000" stroke="none" stroke-width="0"/><path d="M442.9,80.8c3.2,0 5.7,2.5 5.7,5.7c0,3.2 -2.5,5.7 -5.7,5.7c-3.2,0 -5.7,-2.6 -5.7,-5.7c0,-3.2 2.5,-5.7 5.7,-5.7z" fill="#ff00de" stroke="none" stroke-width="0"/><path d="M427,63.2v-14.2h32v14.2z" fill="#000000" stroke="#ffffff" stroke-width="2"/></g></g></g></svg>