<svg version="1.1" xmlns="http://www.w3.org/2000/svg" xmlns:xlink="http://www.w3.org/1999/xlink" width="721" height="401.27688" viewBox="0,0,721,401.27688"><g transform="translate(117.5,40)"><g data-paper-data="{&quot;isPaintingLayer&quot;:true}" fill-rule="nonzero" stroke-linecap="butt" stroke-linejoin="miter" stroke-miterlimit="10" stroke-dasharray="" stroke-dashoffset="0" style="mix-blend-mode: normal"><path d="M-117.5,-6v-34h721v34z" fill="none" stroke="none" stroke-width="0"/><g><path d="M203.7,220.07501v-6.3h10v6.3z" fill="#000000" stroke="none" stroke-width="0"/><path d="M179.1,220.07501v-6.3h5.5v6.3z" fill="#000000" stroke="none" stroke-width="0"/><path d="M179.9,212.27501v-6.3h5.5v6.3z" fill="#000000" stroke="none" stroke-width="0"/><path d="M181.3,204.17501v-6h5.5v6z" fill="#000000" stroke="none" stroke-width="0"/><path d="M183.5,196.97501v-5.1h5.5v5.1z" fill="#000000" stroke="none" stroke-width="0"/><path d="M185.4,190.87501v-3.5h5.5v3.5z" fill="#000000" stroke="none" stroke-width="0"/><path d="M202.9,211.97501v-5.8h10v5.8z" fill="#000000" stroke="none" stroke-width="0"/><path d="M201.6,204.67501v-6h10v6z" fill="#000000" stroke="none" stroke-width="0"/><path d="M198.7,196.97501v-5h10v5z" fill="#000000" stroke="none" stroke-width="0"/><path d="M196.3,190.87501v-3.1h10v3.1z" fill="#000000" stroke="none" stroke-width="0"/><path d="M193,186.67501v-2.4h10v2.4z" fill="#000000" stroke="none" stroke-width="0"/><path d="M188.7,183.67501v-1.6h10v1.6z" fill="#000000" stroke="none" stroke-width="0"/><path d="M202.9,227.57501v-5.8h10v5.8z" fill="#000000" stroke="none" stroke-width="0"/><path d="M201.6,235.07501v-6h10v6z" fill="#000000" stroke="none" stroke-width="0"/><path d="M198.7,241.775v-5h10v5z" fill="#000000" stroke="none" stroke-width="0"/><path d="M196.3,245.97501v-3.1h10v3.1z" fill="#000000" stroke="none" stroke-width="0"/><path d="M193,249.47501v-2.4h10v2.4z" fill="#000000" stroke="none" stroke-width="0"/><path d="M188.7,251.67501v-1.6h10v1.6z" fill="#000000" stroke="none" stroke-width="0"/><path d="M179.9,227.87501v-6.3h5.5v6.3z" fill="#000000" stroke="none" stroke-width="0"/><path d="M181.3,235.47501v-6h5.5v6z" fill="#000000" stroke="none" stroke-width="0"/><path d="M183.5,241.87501v-5.1h5.5v5.1z" fill="#000000" stroke="none" stroke-width="0"/><path d="M185.4,246.37501v-3.5h5.5v3.5z" fill="#000000" stroke="none" stroke-width="0"/><path d="M190.9,187.37501c-4.8,0 -8.8,13.3 -8.8,29.7c0,16.4 3.9,29.7 8.8,29.7c4.9,0 8.8,-13.3 8.8,-29.7c0,-16.4 -3.9,-29.7 -8.8,-29.7zM203.8,217.07501c0,20 -5.7,36.3 -12.8,36.3c-7.1,0 -12.9,-16.2 -12.9,-36.2c0,-20 5.8,-36.3 12.9,-36.3c7.1,0 12.8,16.2 12.8,36.3v0z" fill="#ffed48" stroke="none" stroke-width="0"/><path d="M203.8,217.17501c0,20 -5.7,36.3 -12.8,36.3c-7.1,0 -12.9,-16.3 -12.9,-36.3c0,-20 5.8,-36.3 12.9,-36.3c7.1,0 12.8,16.2 12.8,36.3z" fill="none" stroke="#fffecc" stroke-width="1.9"/></g><path d="M39.20302,35.97767v-35.71749h35.95965v35.71749z" fill="#000000" stroke="#ffffff" stroke-width="2"/><path d="M75.20302,35.97767v-35.71749h35.95965v35.71749z" fill="#000000" stroke="#ffffff" stroke-width="2"/><path d="M2.70302,35.47767v-35.71749h35.95965v35.71749z" fill="#000000" stroke="#ffffff" stroke-width="2"/><path d="M148.20302,35.97767v-35.71749h35.95965v35.71749z" fill="#000000" stroke="#ffffff" stroke-width="2"/><path d="M184.20302,35.97767v-35.71749h35.95965v35.71749z" fill="#000000" stroke="#ffffff" stroke-width="2"/><path d="M111.70302,35.47767v-35.71749h35.95965v35.71749z" fill="#000000" stroke="#ffffff" stroke-width="2"/><path d="M257.20302,35.97767v-35.71749h35.95965v35.71749z" fill="#000000" stroke="#ffffff" stroke-width="2"/><path d="M257.20302,35.97767v-35.71749h35.95965v35.71749z" fill="#000000" stroke="#ffffff" stroke-width="2"/><path d="M293.20302,35.97767v-35.71749h35.95965v35.71749z" fill="#000000" stroke="#ffffff" stroke-width="2"/><path d="M220.70302,35.47767v-35.71749h35.95965v35.71749z" fill="#000000" stroke="#ffffff" stroke-width="2"/><path d="M365.20302,35.97767v-35.71749h35.95965v35.71749z" fill="#000000" stroke="#ffffff" stroke-width="2"/><path d="M401.20302,35.97767v-35.71749h35.95965v35.71749z" fill="#000000" stroke="#ffffff" stroke-width="2"/><path d="M437.20302,35.97767v-35.71749h35.95965v35.71749z" fill="#000000" stroke="#ffffff" stroke-width="2"/><path d="M328.70302,35.47767v-35.71749h35.95965v35.71749z" fill="#000000" stroke="#ffffff" stroke-width="2"/><path d="M167.8,359.57501c-1.4,1.1 -28.7,0.9 -29.6,0c0,-4.1 6.6,-7.4 14.8,-7.4c8.2,0 14.8,3.3 14.8,7.4z" fill="#fbff00" stroke="#fffede" stroke-width="1.9"/><path d="M173.65117,360.05956l15.48582,-21.71168l14.82755,21.59165z" fill="#000000" stroke="#fff4d6" stroke-width="2"/><path d="M203.65117,360.05956l15.48582,-21.71168l14.82755,21.59165z" fill="#000000" stroke="#fff4d6" stroke-width="2"/></g></g></svg>